<svg width="100%" height="100%" viewBox="0 0 300 150" fill="none" xmlns="http://www.w3.org/2000/svg">
<path fill-rule="evenodd" clip-rule="evenodd" d="M172.068 56.9651L184.792 51.0361L186.775 55.3947L202.829 53.6028L200.995 63.6458L212.585 68.3387L207.392 79.9914L215.783 89.4072L210.254 92.0984L211.194 101.992H202.015L200.497 120.346L181.213 105.008L165.706 112.696L154.244 92.0984L151.022 74.0994L155.323 70.5733L156.052 61.1737L163.248 60.3712L167.966 54.0732L172.068 56.9651Z" fill="url(#paint0_radial_3976_116078)"/>
<path d="M185.81 103.898C184.444 104.257 183.438 102.167 181.671 103.654" stroke="black" stroke-width="0.216288" stroke-miterlimit="3" stroke-linejoin="round"/>
<path fill-rule="evenodd" clip-rule="evenodd" d="M161.37 74.8711C158.287 80.5072 149.133 91.4708 150.189 97.997C150.657 100.887 159.798 94.8989 164.791 88.2988C165.192 86.8252 157.975 88.2988 157.975 88.2988L162.784 86.6235" fill="url(#paint1_radial_3976_116078)"/>
<path fill-rule="evenodd" clip-rule="evenodd" d="M166.4 71.501C164.966 72.6448 163.801 74.1761 162.061 73.6433C162.792 73.9132 162.997 74.5635 162.994 76.0048C163.34 75.2138 164.701 74.4897 165.632 75.0155C165.116 73.6433 165.298 72.8731 166.4 71.501Z" fill="url(#paint2_linear_3976_116078)"/>
<path d="M164.92 78.2002C166.327 78.5023 167.664 79.0258 168.9 79.7637" stroke="url(#paint3_linear_3976_116078)" stroke-width="0.578266" stroke-miterlimit="3" stroke-linecap="round"/>
<path fill-rule="evenodd" clip-rule="evenodd" d="M177.274 74.8516C175.653 76.3943 174.246 77.6719 173.211 77.1577C175.007 78.1447 175.351 79.2285 175.242 80.5084C176.34 79.0279 177.44 78.4191 178.538 78.6958C176.619 78.2461 176.554 76.7679 177.274 74.8516Z" fill="url(#paint4_linear_3976_116078)"/>
<path fill-rule="evenodd" clip-rule="evenodd" d="M121.141 70.3202V107.098L96.0707 117.511V136.855L74.7447 145.713V126.369L71 127.924V47.074L81.3724 42.7659V47.9325L90.5939 44.1024V38.9357L96.0707 36.661V10.4122L117.394 1.55576V27.8045L121.141 26.248V38.7102L113.649 41.8221V73.4321L121.141 70.3202Z" fill="url(#paint5_linear_3976_116078)"/>
<path d="M131.73 10.2713L123.543 13.6719V42.5454L131.73 39.1448V10.2713Z" fill="#FFD5DA" fill-opacity="0.69"/>
<path d="M81.4768 65.5679L73.5049 68.8789V76.8512L81.4768 73.5403V65.5679Z" fill="#04FFE3"/>
<path d="M85.5641 23.3676L84.3096 27.1367L87.0625 29.5268L88.3171 25.7578L85.5641 23.3676Z" fill="#EDDADA"/>
<path d="M111.262 13.5616L108.103 18.0332L111.262 19.8807L114.421 15.4091L111.262 13.5616Z" fill="#BCBAFE"/>
<path d="M112.507 41.6849L110.018 42.7188V122.445L112.507 121.411V41.6849Z" fill="#FFF0F2"/>
<path d="M108.032 86.114L84.1992 96.0117V97.876L108.032 87.9782V86.114Z" fill="#9BB8C8"/>
<path d="M112.161 54.9396L90.7109 63.8477V66.6123L112.161 57.7042V54.9396Z" fill="#E8F6E9"/>
<path d="M108.807 76.0804L77.6201 89.0322V91.3557L108.807 78.4039V76.0804Z" fill="#9BB8C8"/>
<path d="M108.73 72.8888L83.4141 83.4023V85.385L108.73 74.8714V72.8888Z" fill="#9BB8C8"/>
<path d="M108.032 91.0461L84.0312 101.014V101.558L108.032 91.5902V91.0461Z" fill="#9BB8C8"/>
<path d="M119.804 35.6535L74.0254 54.665V56.3119L119.804 37.3004V35.6535Z" fill="#55010B" fill-opacity="0.44"/>
<path d="M108.796 80.0514L83.8486 90.4121V91.3294L108.796 80.9687V80.0514Z" fill="#9BB8C8"/>
<path d="M108.797 70.0944L94.8213 75.8984V77.0135L108.797 71.2094V70.0944Z" fill="#9BB8C8"/>
<path d="M108.728 67.4304L93.2129 73.874V74.9891L108.728 68.5455V67.4304Z" fill="#9BB8C8"/>
<path d="M108.73 82.5662L98.5195 86.8066V87.6063L108.73 83.3659V82.5662Z" fill="#9BB8C8"/>
<path d="M117.294 90.6071L108.029 94.4551V119.019L117.294 115.171V90.6071Z" fill="#56AAA1" fill-opacity="0.45"/>
<path fill-rule="evenodd" clip-rule="evenodd" d="M123.155 52.2568L121.065 54.4219L122.552 57.5941L125.228 57.9503L126.557 54.9964L125.665 52.9551L123.155 52.2568Z" fill="#FFCFB1"/>
<path d="M121.641 54.4222L124.078 54.6395L125.07 53.2129" stroke="#CA9F9F" stroke-width="0.123914" stroke-miterlimit="3" stroke-linecap="round" stroke-linejoin="round"/>
<path d="M125.07 57.6529L124.078 54.6387" stroke="#CA9F9F" stroke-width="0.183209" stroke-miterlimit="3" stroke-linecap="round" stroke-linejoin="round"/>
<path d="M140.479 18.6558C141.128 18.6558 141.654 18.1297 141.654 17.4807C141.654 16.8318 141.128 16.3057 140.479 16.3057C139.83 16.3057 139.304 16.8318 139.304 17.4807C139.304 18.1297 139.83 18.6558 140.479 18.6558Z" fill="#D2B2B6"/>
<path d="M113.453 129.579C114.974 129.579 116.207 128.435 116.207 127.024C116.207 125.613 114.974 124.47 113.453 124.47C111.932 124.47 110.699 125.613 110.699 127.024C110.699 128.435 111.932 129.579 113.453 129.579Z" fill="#9EFF04"/>
<path fill-rule="evenodd" clip-rule="evenodd" d="M164.669 96.4297L169.304 115.732L186.211 119.507L182.948 100.025L164.669 96.4297Z" fill="#29FFC5"/>
<path d="M195.302 76.9043C198.678 85.5014 203.191 93.9712 199.947 97.0129C196.702 100.055 187.252 110.089 181.607 106.692C181.607 106.692 184.591 100.465 188.4 93.561C187.033 90.7832 188.243 91.0357 188.4 89.5138C188.558 87.992 192.714 79.5071 195.302 76.9043Z" fill="url(#paint6_radial_3976_116078)"/>
<path d="M110.699 84.4678V100.203" stroke="white" stroke-width="0.454352" stroke-miterlimit="3" stroke-linecap="round"/>
<path fill-rule="evenodd" clip-rule="evenodd" d="M148.342 104.481C148.148 105.175 148.153 107.305 148.645 108.176C149.134 109.049 150.951 110.159 151.645 110.354C150.951 110.159 148.821 110.164 147.951 110.654C147.078 111.145 145.967 112.963 145.773 113.656C145.967 112.963 145.962 110.833 145.471 109.959C144.981 109.089 143.164 107.978 142.47 107.784C143.164 107.978 145.293 107.973 146.165 107.481C147.037 106.992 148.148 105.175 148.342 104.481Z" fill="#FFAEB7"/>
<path d="M109.738 85.1855V113.386" stroke="white" stroke-width="0.16988" stroke-miterlimit="3" stroke-linecap="round"/>
<path fill-rule="evenodd" clip-rule="evenodd" d="M178.893 102.179L166.617 99.7236L166.369 98.7715L178.645 101.227L178.893 102.179Z" fill="#C9C9C9"/>
<path fill-rule="evenodd" clip-rule="evenodd" d="M179.284 103.608L167.008 101.152L166.76 100.2L179.036 102.655L179.284 103.608Z" fill="#535353"/>
<path fill-rule="evenodd" clip-rule="evenodd" d="M180.189 107.015L167.913 104.56L167.665 103.607L179.941 106.063L180.189 107.015Z" fill="#535353"/>
<g clip-path="url(#clip0_3976_116078)">
<path fill-rule="evenodd" clip-rule="evenodd" d="M179.716 105.312L167.44 102.856L167.191 101.904L179.467 104.36L179.716 105.312Z" fill="#535353"/>
<path fill-rule="evenodd" clip-rule="evenodd" d="M180.622 108.719L168.346 106.264L168.098 105.312L180.374 107.767L180.622 108.719Z" fill="#535353"/>
<path fill-rule="evenodd" clip-rule="evenodd" d="M182.455 105.983L182.525 106.253C181.841 106.553 181.532 106.568 180.995 106.498C180.825 106.476 180.633 106.445 180.395 106.391C180.319 106.375 180.236 106.361 180.152 106.328C180.1 106.307 180.055 106.278 180.003 106.243C179.967 106.217 179.941 106.197 179.909 106.164C179.815 106.068 179.786 106.011 179.689 105.896L179.756 105.624C179.898 105.569 179.954 105.535 180.085 105.5C180.132 105.488 180.166 105.482 180.211 105.479C180.275 105.475 180.332 105.475 180.39 105.485C180.489 105.503 180.574 105.54 180.655 105.57C180.894 105.659 181.072 105.746 181.234 105.813C181.621 105.97 181.864 106.04 182.455 105.983Z" fill="url(#paint7_linear_3976_116078)"/>
<path fill-rule="evenodd" clip-rule="evenodd" d="M182.608 106.442L182.749 106.683C182.322 107.022 181.902 107.219 181.458 107.336C181.25 107.391 181.04 107.418 180.821 107.429C180.629 107.439 180.431 107.442 180.231 107.405C180.15 107.39 180.069 107.371 179.992 107.334C179.92 107.301 179.861 107.267 179.797 107.215C179.686 107.122 179.641 107.057 179.538 106.945L179.613 106.675C179.762 106.63 179.835 106.586 179.982 106.551C180.03 106.54 180.068 106.532 180.117 106.528C180.184 106.524 180.246 106.52 180.31 106.527C180.505 106.55 180.687 106.607 180.872 106.631C181.159 106.668 181.432 106.695 181.723 106.661C182.011 106.628 182.297 106.565 182.608 106.442Z" fill="url(#paint8_linear_3976_116078)"/>
<path fill-rule="evenodd" clip-rule="evenodd" d="M182.818 106.95L182.949 107.197C182.6 107.452 182.381 107.647 182.142 107.805C181.941 107.936 181.732 108.03 181.449 108.105C181.245 108.159 181.006 108.199 180.698 108.211C180.601 108.215 180.496 108.222 180.387 108.205C180.321 108.195 180.256 108.177 180.187 108.15C180.138 108.134 180.101 108.116 180.055 108.09C179.932 108.014 179.87 107.955 179.741 107.856L179.768 107.578C179.897 107.514 179.957 107.468 180.076 107.417C180.13 107.395 180.171 107.381 180.225 107.366C180.275 107.353 180.32 107.343 180.37 107.337C180.41 107.332 180.451 107.331 180.489 107.332C180.587 107.333 180.678 107.346 180.763 107.352C181.142 107.386 181.395 107.401 181.62 107.362C182.005 107.294 182.284 107.144 182.818 106.95Z" fill="url(#paint9_linear_3976_116078)"/>
</g>
<path fill-rule="evenodd" clip-rule="evenodd" d="M165.432 87.0774C165.44 87.0719 165.449 87.0664 165.454 87.0664C165.227 87.1031 165.009 87.2643 164.829 87.464C164.604 87.715 164.423 87.999 164.349 88.2152L164.065 88.1565C164.093 87.8396 164.258 87.3651 164.516 86.9748C164.71 86.6817 164.972 86.4673 165.253 86.3538C165.377 86.3061 165.595 86.3171 165.866 86.3941C166.117 86.4637 166.447 86.5809 166.757 86.7568C166.808 86.7861 166.856 86.8191 166.902 86.8576C166.975 86.9162 167.033 86.9767 167.096 87.0445C167.142 87.0958 167.173 87.1379 167.209 87.191C167.277 87.2881 167.308 87.3504 167.365 87.442L167.228 87.6985C167.096 87.6985 167.006 87.7113 166.859 87.6967C166.744 87.6857 166.643 87.671 166.528 87.638C166.442 87.6124 166.359 87.5776 166.28 87.5391C166.088 87.4457 165.918 87.3284 165.756 87.2441C165.654 87.191 165.566 87.1397 165.487 87.1104C165.469 87.1031 165.447 87.0847 165.432 87.0774ZM165.432 87.0774C165.423 87.0829 165.416 87.0884 165.416 87.0793C165.418 87.0719 165.423 87.0719 165.432 87.0774Z" fill="url(#paint10_linear_3976_116078)"/>
<path fill-rule="evenodd" clip-rule="evenodd" d="M163.844 88.5029L163.728 88.2368C164.266 87.9234 164.935 87.8479 165.547 87.9701C165.834 88.0292 166.1 88.144 166.339 88.2965C166.54 88.4272 166.713 88.594 166.85 88.7865C166.911 88.8723 166.967 88.9633 167.003 89.0622C167.022 89.1124 167.038 89.1619 167.046 89.2141C167.062 89.3366 167.079 89.45 167.055 89.5794C167.045 89.633 167.041 89.6766 167.02 89.7297C166.971 89.8517 166.941 89.9305 166.86 90.047L166.57 90.0239C166.517 89.9051 166.453 89.8521 166.391 89.7483C166.353 89.683 166.305 89.6443 166.27 89.5823C166.24 89.53 166.2 89.4869 166.172 89.4353C166.089 89.278 166.005 89.1257 165.878 89.005C165.784 88.9161 165.688 88.8305 165.577 88.761C165.074 88.4519 164.419 88.3302 163.844 88.5029Z" fill="url(#paint11_linear_3976_116078)"/>
<path fill-rule="evenodd" clip-rule="evenodd" d="M163.615 88.8901L163.601 88.5993C164.071 88.5091 164.625 88.5975 165.137 88.8197C165.354 88.9139 165.552 89.0411 165.734 89.1874C165.865 89.2925 165.978 89.4115 166.075 89.5414C166.146 89.6319 166.214 89.727 166.25 89.8349C166.289 89.9491 166.315 90.0621 166.305 90.1814C166.299 90.2625 166.301 90.3216 166.272 90.3969C166.225 90.5167 166.203 90.5798 166.125 90.6886L165.835 90.6806C165.778 90.5895 165.726 90.568 165.661 90.4874C165.638 90.4584 165.612 90.4456 165.591 90.416C165.551 90.358 165.495 90.3243 165.456 90.2657C165.426 90.2199 165.4 90.1706 165.372 90.1219C165.328 90.0477 165.289 89.9699 165.236 89.8986C165.097 89.7054 164.933 89.5244 164.735 89.3775C164.382 89.1162 163.991 88.9238 163.615 88.8901Z" fill="url(#paint12_linear_3976_116078)"/>
<path fill-rule="evenodd" clip-rule="evenodd" d="M163.009 89.127L163.128 88.8613C163.648 89.0116 164.082 89.3139 164.416 89.7041C164.57 89.8836 164.691 90.087 164.784 90.3032C164.89 90.5487 164.969 90.8143 164.956 91.0837C164.954 91.1405 164.945 91.1917 164.929 91.2449C164.903 91.3291 164.883 91.4006 164.835 91.4757C164.812 91.516 164.799 91.5453 164.766 91.582C164.685 91.6718 164.647 91.7175 164.551 91.7945L164.271 91.7121C164.238 91.6076 164.2 91.5655 164.163 91.4647C164.148 91.4263 164.134 91.4043 164.123 91.3658C164.103 91.2889 164.07 91.2302 164.055 91.1533C164.049 91.1203 164.044 91.0873 164.042 91.0544C164.037 90.9756 164.037 90.8968 164.029 90.8198C164 90.545 163.939 90.2775 163.811 90.032C163.624 89.6748 163.366 89.3542 163.009 89.127Z" fill="url(#paint13_linear_3976_116078)"/>
<ellipse opacity="0.35" cx="182.027" cy="138.108" rx="70.0946" ry="9.27613" fill="url(#paint14_radial_3976_116078)"/>
<defs>
<radialGradient id="paint0_radial_3976_116078" cx="0" cy="0" r="1" gradientUnits="userSpaceOnUse" gradientTransform="translate(178.271 79.6369) rotate(7.49757) scale(46.3968 41.6201)">
<stop offset="0.348536" stop-color="#FFF8D6"/>
<stop offset="0.424608" stop-color="#FFE767"/>
<stop offset="0.618936" stop-color="#FF9D42"/>
<stop offset="0.808975" stop-color="#FA4119"/>
</radialGradient>
<radialGradient id="paint1_radial_3976_116078" cx="0" cy="0" r="1" gradientUnits="userSpaceOnUse" gradientTransform="translate(174.713 67.6253) rotate(127.844) scale(43.6403 82.2402)">
<stop offset="0.169575" stop-color="#FFF8D6" stop-opacity="0"/>
<stop offset="0.357477" stop-color="#FFF8D6" stop-opacity="0.1"/>
<stop offset="0.619583" stop-color="#FFE767"/>
<stop offset="0.812983" stop-color="#FF9D42"/>
<stop offset="0.914067" stop-color="#FA4119"/>
</radialGradient>
<linearGradient id="paint2_linear_3976_116078" x1="168.372" y1="73.7529" x2="160.147" y2="78.1969" gradientUnits="userSpaceOnUse">
<stop stop-color="#FF9D42"/>
<stop offset="1" stop-color="#FA4119"/>
</linearGradient>
<linearGradient id="paint3_linear_3976_116078" x1="165.359" y1="77.785" x2="168.21" y2="80.211" gradientUnits="userSpaceOnUse">
<stop stop-color="#DD8500"/>
<stop offset="1" stop-color="#FD7631"/>
</linearGradient>
<linearGradient id="paint4_linear_3976_116078" x1="173.211" y1="73.379" x2="175.393" y2="81.4145" gradientUnits="userSpaceOnUse">
<stop stop-color="#FF9D42"/>
<stop offset="1" stop-color="#FA4119"/>
</linearGradient>
<linearGradient id="paint5_linear_3976_116078" x1="101.612" y1="14.091" x2="101.619" y2="128.637" gradientUnits="userSpaceOnUse">
<stop stop-color="#FFD5DA" stop-opacity="0.57"/>
<stop offset="1" stop-color="#29FFC5"/>
</linearGradient>
<radialGradient id="paint6_radial_3976_116078" cx="0" cy="0" r="1" gradientUnits="userSpaceOnUse" gradientTransform="translate(178.044 62.9694) rotate(77.0281) scale(90.1471 175.47)">
<stop offset="0.0541677" stop-color="#FFF8D6" stop-opacity="0"/>
<stop offset="0.320275" stop-color="#FFF8D6" stop-opacity="0.1"/>
<stop offset="0.383224" stop-color="#FFE767"/>
<stop offset="0.512079" stop-color="#FF9D42"/>
<stop offset="0.555431" stop-color="#FA4119"/>
</radialGradient>
<linearGradient id="paint7_linear_3976_116078" x1="183.192" y1="106.287" x2="179.729" y2="107.296" gradientUnits="userSpaceOnUse">
<stop offset="0.315747" stop-color="#FFAD4A"/>
<stop offset="1" stop-color="#FD6A2C"/>
</linearGradient>
<linearGradient id="paint8_linear_3976_116078" x1="183.192" y1="106.287" x2="179.729" y2="107.296" gradientUnits="userSpaceOnUse">
<stop offset="0.315747" stop-color="#FFAD4A"/>
<stop offset="1" stop-color="#FD6A2C"/>
</linearGradient>
<linearGradient id="paint9_linear_3976_116078" x1="183.192" y1="106.287" x2="179.729" y2="107.296" gradientUnits="userSpaceOnUse">
<stop offset="0.315747" stop-color="#FFAD4A"/>
<stop offset="1" stop-color="#FD6A2C"/>
</linearGradient>
<linearGradient id="paint10_linear_3976_116078" x1="164.157" y1="87.1978" x2="164.917" y2="88.6369" gradientUnits="userSpaceOnUse">
<stop stop-color="#FFE976"/>
<stop offset="1" stop-color="#FC692B"/>
</linearGradient>
<linearGradient id="paint11_linear_3976_116078" x1="164.443" y1="89.466" x2="166.382" y2="89.924" gradientUnits="userSpaceOnUse">
<stop stop-color="#FFE976"/>
<stop offset="1" stop-color="#FC692B"/>
</linearGradient>
<linearGradient id="paint12_linear_3976_116078" x1="163.988" y1="89.8221" x2="165.619" y2="90.4936" gradientUnits="userSpaceOnUse">
<stop stop-color="#FFE976"/>
<stop offset="1" stop-color="#FC692B"/>
</linearGradient>
<linearGradient id="paint13_linear_3976_116078" x1="163.063" y1="90.2156" x2="164.418" y2="91.1916" gradientUnits="userSpaceOnUse">
<stop stop-color="#FFE976"/>
<stop offset="1" stop-color="#FC692B"/>
</linearGradient>
<radialGradient id="paint14_radial_3976_116078" cx="0" cy="0" r="1" gradientUnits="userSpaceOnUse" gradientTransform="translate(182.027 138.108) scale(70.0946 9.27613)">
<stop stop-color="#FFEDD7"/>
<stop offset="0.66" stop-color="#FFEDD7"/>
<stop offset="1" stop-color="#FBFCFE" stop-opacity="0"/>
</radialGradient>
<clipPath id="clip0_3976_116078">
<rect width="18.3209" height="18.3209" fill="white" transform="translate(165.753 101.904)"/>
</clipPath>
</defs>
</svg>
