<svg width="300" height="150" viewBox="0 0 300 150" fill="none" xmlns="http://www.w3.org/2000/svg">
<path fill-rule="evenodd" clip-rule="evenodd" d="M118.7 79.772C118.699 79.772 118.699 79.772 118.698 79.772L118.701 79.7774L118.7 79.772ZM119.513 79.8941C119.265 79.8097 118.99 79.7769 118.7 79.772L118.687 79.6959C119.187 79.5248 119.816 79.4488 120.321 79.7367C120.477 79.8127 120.612 79.9334 120.745 80.0519C120.948 80.2338 121.146 80.4102 121.404 80.4102C121.545 80.4141 121.673 80.3972 121.805 80.3798C121.946 80.3612 122.09 80.3421 122.259 80.3477L122.305 80.4156C122.104 80.9126 121.572 81.3633 120.991 81.1923C120.866 81.1597 120.733 81.0673 120.644 80.9832C120.526 80.8617 120.454 80.7493 120.388 80.6476C120.358 80.6015 120.33 80.5576 120.299 80.5161C120.132 80.2455 119.915 80.0676 119.664 79.9538C119.858 80.5957 120.086 81.2377 120.413 81.8082C120.611 82.0758 120.785 82.304 120.957 82.5298L120.957 82.5298C121.187 82.831 121.414 83.1279 121.689 83.5082L121.659 83.5842C120.874 83.682 120.155 83.0954 119.927 82.3703C119.606 81.5833 119.495 80.7337 119.513 79.8941ZM119.29 84.9181C117.257 84.25 117.96 81.3524 118.609 79.8914L118.611 79.8887L118.69 79.9131C118.625 80.3531 118.571 80.7903 118.562 81.2248C118.497 82.0667 118.679 82.8949 118.942 83.658C119.037 84.0409 119.162 84.4021 119.344 84.8556L119.29 84.9181ZM121.42 84.8183C119.013 84.8047 118.902 81.6926 119.013 79.9057L119.095 79.9002C119.117 80.0099 119.139 80.1195 119.161 80.2288C119.233 80.5929 119.305 80.9539 119.401 81.307C119.7 82.7055 120.468 83.7049 121.45 84.7423L121.42 84.8183Z" fill="url(#paint0_linear_3976_116076)"/>
<path d="M42.1704 38.3643L56.8921 51.1333L52.1214 54.7126L59.4619 60.3394L57.8717 70.9522L67.204 72.8423L69.1932 84.3839L78.4956 81.0762L86.0993 88.7208L94.2268 81.0762L103.958 85.5951L105.92 74.4473L120.061 81.451L114.574 64.1712L126.213 59.7338L117.033 50.688L122.256 39.7764L112.72 37.1395L110.965 25.1254L101.372 27.7162L95.1386 18.2113L87.2716 23.6725L78.0424 17.8447L73.6273 27.7162L61.9748 27.0997L63.2041 37.9922L42.1649 38.367L42.1704 38.3643Z" fill="url(#paint1_radial_3976_116076)"/>
<path d="M89.9639 48.0977C90.0806 48.0977 90.1946 48.0488 90.276 47.9537C90.4198 47.7826 90.3981 47.5247 90.2271 47.3807C88.7753 46.1587 88.1268 45.3929 87.8608 43.8314C87.8337 43.6766 87.7197 43.5489 87.5677 43.5055C87.4158 43.462 87.253 43.5136 87.1498 43.6331C85.3452 45.754 83.5189 45.9333 80.7808 45.5259C80.561 45.4933 80.3521 45.6454 80.3195 45.8681C80.287 46.0908 80.4389 46.2972 80.6614 46.3298C83.3588 46.7317 85.3534 46.5878 87.234 44.7384C87.6166 46.0555 88.3656 46.8729 89.7034 47.9999C89.7794 48.0651 89.8717 48.095 89.9666 48.095L89.9639 48.0977Z" fill="url(#paint2_linear_3976_116076)"/>
<path fill-rule="evenodd" clip-rule="evenodd" d="M41.6082 38.0275C42.208 38.2067 42.8593 38.2828 43.4943 38.3479V38.3506L43.5024 38.4321C42.8484 38.6086 42.1808 38.7254 41.4916 38.6711C41.4565 38.6681 41.4208 38.6653 41.3847 38.6625C41.0634 38.6376 40.7081 38.61 40.4251 38.3805C40.1157 38.1415 39.8742 37.7505 39.9366 37.3458L40.0099 37.3105C40.3518 37.4979 40.5879 37.5875 40.8403 37.6772C40.9582 37.7135 41.0718 37.7745 41.1902 37.8382C41.3197 37.9079 41.4551 37.9807 41.6082 38.0275ZM43.4751 38.495C42.5986 38.8561 41.5973 39.0055 40.6963 38.7231L40.5487 38.6609C39.938 38.4041 39.4473 38.1978 38.8565 37.7373L38.7832 37.7699C38.7615 38.3483 39.1631 38.8833 39.6489 39.1793C40.0342 39.3966 40.4874 39.44 40.9216 39.4482C41.8659 39.478 42.794 39.1359 43.5186 38.5601L43.4751 38.4895V38.495ZM43.3043 39.1417C42.5363 39.3644 41.7439 39.5463 40.9569 39.6142C40.7016 39.6049 40.4699 39.6027 40.2463 39.6006H40.2463C39.7499 39.5959 39.2938 39.5915 38.71 39.511L38.6557 39.5735C38.8321 40.0243 39.3043 40.2958 39.7493 40.3936C40.1636 40.4966 40.569 40.3892 40.9455 40.2894L40.9455 40.2894C40.9858 40.2787 41.0258 40.2681 41.0655 40.2578C41.885 40.046 42.6394 39.6712 43.3395 39.2177L43.3043 39.1444V39.1417Z" fill="url(#paint3_linear_3976_116076)"/>
<path d="M107.426 51.1036C107.586 51.1036 107.738 51.0085 107.803 50.8483C107.887 50.6392 107.787 50.4029 107.578 50.3187C105.106 49.3167 104.43 47.6085 104.064 45.9112C104.02 45.713 103.841 45.5772 103.638 45.5908C103.434 45.6044 103.274 45.7673 103.261 45.9683C103.176 47.2175 102.734 48.2331 102.048 48.7518C101.657 49.0478 101.212 49.1619 100.794 49.0723C100.574 49.0261 100.357 49.1673 100.311 49.3873C100.265 49.6072 100.406 49.8245 100.626 49.8707C101.277 50.0092 101.958 49.8435 102.539 49.4036C103.071 49.0016 103.478 48.4096 103.744 47.6764C104.281 48.9935 105.258 50.2536 107.274 51.071C107.323 51.09 107.377 51.1009 107.426 51.1009V51.1036Z" fill="url(#paint4_linear_3976_116076)"/>
<path d="M93.0937 56.2846C92.4843 55.937 92.4529 54.8429 93.0236 53.8409C93.5943 52.8389 94.5509 52.3083 95.1603 52.6558C95.7697 53.0034 95.801 54.0975 95.2304 55.0995C94.6597 56.1016 93.7031 56.6321 93.0937 56.2846Z" fill="url(#paint5_linear_3976_116076)"/>
<path d="M42.1738 38.5758L31.965 46.31L40.8821 22.9824L42.1738 38.5758Z" fill="url(#paint6_linear_3976_116076)"/>
<path d="M40.8818 22.9824L31.9647 46.31L29.3189 33.2911L40.8818 22.9824Z" fill="url(#paint7_linear_3976_116076)"/>
<path d="M29.3162 33.2898L37.5631 31.6631L42.1709 38.5717L34.5943 39.4299L29.3189 33.2898H29.3162Z" fill="url(#paint8_linear_3976_116076)"/>
<path d="M43.1702 38.3855C42.7957 38.2524 42.6735 37.8994 42.3099 37.7908C42.2041 37.7528 42.025 37.6957 42.025 37.598C42.0385 37.1173 41.9924 36.6882 41.6668 36.232L41.5854 36.2266C41.4632 36.3488 41.3791 36.4764 41.3167 36.6122C40.9504 37.2314 41.3656 38.3529 42.2285 38.2687C42.2882 38.2687 42.2963 38.2606 42.3506 38.2742C42.565 38.3638 42.8988 38.4969 43.1566 38.4643L43.1729 38.3855H43.1702Z" fill="url(#paint9_linear_3976_116076)"/>
<path d="M188.07 52.7373L184.399 54.336L181.685 36.751C177.02 38.578 173.426 43.7926 169.87 49.1594L165.55 40.405C162.759 42.0417 160.388 47.104 157.979 51.8619L152.244 48.0937C150.715 50.7581 150.485 55.7443 150.294 60.8066L143.259 54.7166L145.706 69.523L138.865 73.1015L141.959 82.1218L135.957 90.7316L144.811 96.1544C144.505 98.276 140.602 110.391 140.224 112.609C142.236 111.899 147.21 109.79 151.643 108.077C151.439 111.068 153.144 122.141 154.377 127.094C156.639 125.007 166.671 115.494 171.771 114.159C173.58 116.41 188.366 127.77 190.056 128.345C190.056 120.608 189.65 109.291 191.295 105.61L208.678 99.859L199.005 91.371L218.734 89.3537L205.046 79.7999L220.722 63.5471C214.031 62.9001 207.302 62.253 198.47 61.7201L200.458 47.3324C197.782 48.1317 194.302 49.7684 190.708 51.5574L188.07 52.7373Z" fill="url(#paint10_radial_3976_116076)"/>
<path d="M151.662 67.6697L134.796 45.2702C134.643 43.7858 127.149 45.3463 132.77 45.9934L145.104 80.2154C150.14 86.0307 152.271 83.1662 154.082 79.5735C155.892 75.9808 152.556 70.3209 151.662 67.6697Z" fill="url(#paint11_linear_3976_116076)"/>
<path d="M130.935 40.3209C131.356 42.1479 132.197 43.8988 133.459 45.2691L133.612 45.1549C133.229 44.3175 132.962 43.4801 132.77 42.6427C132.579 41.8054 132.465 40.9299 132.426 40.0925C132.412 39.78 132.43 39.4568 132.448 39.1309C132.478 38.5838 132.508 38.0291 132.388 37.5043C132.337 37.2251 132.278 36.9629 132.218 36.7007C132.099 36.1763 131.98 35.6519 131.929 34.9921L131.776 34.916C131.318 35.1825 131.012 35.6392 130.82 36.134C130.209 37.5043 130.553 38.9507 130.935 40.3209Z" fill="url(#paint12_linear_3976_116076)"/>
<path d="M136.594 43.252C135.944 44.3177 135.103 45.1932 134.147 46.0306C134.147 46.0306 134.223 46.1828 134.223 46.1448C135.715 45.7641 137.053 44.8887 138.162 43.8229C139.156 42.9855 139.576 41.6534 139.041 40.3592L138.85 40.3212C138.2 40.7779 137.779 41.2347 137.397 41.6914C137.175 41.9568 137.043 42.2736 136.911 42.5895C136.817 42.8173 136.722 43.0447 136.594 43.252Z" fill="url(#paint13_linear_3976_116076)"/>
<path d="M133.078 45.7907C131.801 44.9444 130.498 44.0814 129.597 42.7953C128.373 40.5496 127.953 37.6188 129.329 35.335L129.52 35.3731C129.903 36.4769 130.17 37.4285 130.4 38.4562C130.545 38.9716 130.544 39.543 130.543 40.1096C130.542 40.589 130.542 41.0651 130.629 41.5012C130.82 42.4528 131.432 43.214 132.082 43.9753C132.38 44.3207 132.691 44.6589 133.005 44.9993C133.352 45.3758 133.701 45.7549 134.036 46.1491C134.098 46.1606 134.161 46.1719 134.223 46.1829V46.3352C134.213 46.3357 134.203 46.3361 134.193 46.3366C134.203 46.3488 134.213 46.361 134.223 46.3732L134.109 46.4874C134.042 46.4408 133.976 46.3943 133.909 46.3481C131.564 46.4312 129.196 46.2069 127.073 45.0411C125.888 44.4321 124.703 43.3663 124.435 41.996C124.321 41.5012 124.321 40.9303 124.359 40.4355C124.474 39.56 125.047 38.8749 125.582 38.304L125.773 38.342C125.827 38.7167 125.822 39.0579 125.817 39.3814C125.812 39.748 125.807 40.0917 125.888 40.4355C126.118 41.2729 126.423 41.9199 126.882 42.6812C127.418 43.5566 128.335 44.1656 129.291 44.6604C130.62 45.3057 132.004 45.7322 133.442 46.0327C133.321 45.9519 133.2 45.8714 133.078 45.7907Z" fill="url(#paint14_linear_3976_116076)"/>
<path fill-rule="evenodd" clip-rule="evenodd" d="M207.31 43.8714C209.119 42.7842 210.481 40.8061 210.57 38.6835L210.435 38.603C209.871 39.2093 209.309 39.8064 208.748 40.4035L208.748 40.4035C208.186 41.0007 207.625 41.5978 207.061 42.204C205.219 44.2163 202.559 45.4336 199.804 45.5294C200.415 45.0366 201.04 44.6172 201.697 44.2078L201.738 44.1818C203.767 42.8861 206.542 41.1131 206.012 38.305L205.877 38.2245C205.609 38.4867 205.394 38.7401 205.194 38.974C205.139 39.0388 205.085 39.1021 205.032 39.1637C204.922 39.2916 204.799 39.4306 204.67 39.5761L204.67 39.5761C204.289 40.0064 203.858 40.4931 203.58 40.915C203.05 41.7876 202.306 42.5136 201.562 43.2406C200.843 43.943 200.123 44.6463 199.593 45.4838L199.717 45.6007L199.736 45.5846L199.731 45.6883C202.342 46.1564 205.101 45.3554 207.31 43.8714ZM206.384 45.7389C204.192 46.5123 201.776 46.1829 199.563 45.7153L199.566 45.8357C200.425 46.2935 201.328 46.6055 202.279 46.8919C203.716 47.2852 205.29 47.3611 206.785 47.1741C208.328 46.9616 209.603 45.7923 210.366 44.4688L210.279 44.3628C209.762 44.486 209.318 44.6311 208.863 44.8128C208.481 44.956 208.053 45.1156 207.626 45.2751L207.624 45.2756L207.624 45.2758C207.196 45.4356 206.768 45.5954 206.384 45.7389ZM197.909 42.7439C198.091 44.1116 198.623 45.5055 199.497 46.5646L199.628 46.5247C199.393 45.857 199.22 45.2477 199.179 44.5986C199.137 43.9495 199.096 43.3004 199.128 42.6733C199.14 42.4307 199.181 42.1909 199.223 41.9498C199.289 41.5677 199.355 41.1823 199.307 40.7775L199.307 40.7773C199.229 40.1173 199.152 39.4572 198.854 38.7311L198.697 38.7235C198.194 39.3278 197.909 39.9982 197.782 40.6762C197.651 41.2098 197.745 41.7601 197.841 42.3212C197.865 42.4614 197.889 42.6024 197.909 42.7439Z" fill="url(#paint15_linear_3976_116076)"/>
<path d="M197.703 78.3188L200.664 46.1608C200.679 45.9475 203.392 45.8922 203.058 45.6021C202.6 45.2031 199.04 44.6156 198.936 44.8834L183.128 81.8349C183.106 81.9077 183.095 81.9442 183.072 82.017C182.833 87.3938 196.902 86.5887 197.703 78.3188Z" fill="url(#paint16_linear_3976_116076)"/>
<path d="M163.789 78.3703C164.377 76.4611 164.134 74.6935 163.246 74.4222C162.358 74.1509 161.161 75.4787 160.572 77.3879C159.984 79.297 160.227 81.0646 161.115 81.3359C162.003 81.6072 163.2 80.2795 163.789 78.3703Z" fill="url(#paint17_linear_3976_116076)"/>
<path d="M162.377 62.531C162.507 62.3649 162.476 62.1258 162.309 61.9969C162.143 61.868 161.902 61.8982 161.773 62.0643L160.467 63.7402C160.045 63.5981 159.596 63.5501 159.232 63.5374C159.215 63.5368 159.196 63.5361 159.176 63.5353C158.785 63.5201 157.903 63.4859 157.903 64.0119C157.94 64.2667 158.171 64.3526 158.397 64.3274C158.525 64.3132 158.837 64.2854 159.205 64.2982C159.714 64.3159 160.261 64.4089 160.624 64.6535C160.655 64.6746 160.718 64.7408 160.794 64.8986C160.866 65.0492 160.934 65.249 160.994 65.49C161.116 65.9715 161.199 66.5702 161.255 67.1643C161.311 67.7556 161.339 68.3297 161.353 68.7569C161.355 68.814 161.353 68.8834 161.35 68.9593C161.337 69.3243 161.319 69.8386 161.75 69.8386C162.077 69.8333 162.141 69.6809 162.13 69.2578C162.128 69.1314 162.125 68.9506 162.117 68.732C162.103 68.2952 162.074 67.7046 162.016 67.0929C161.959 66.4838 161.871 65.841 161.736 65.3049C161.669 65.0372 161.587 64.7842 161.484 64.5709C161.403 64.4017 161.297 64.2307 161.153 64.1015L162.377 62.531Z" fill="url(#paint18_linear_3976_116076)"/>
<path d="M172.772 63.2114C172.761 63.0015 172.58 62.8406 172.37 62.8521C172.159 62.8636 171.997 63.0431 172.009 63.253L172.125 65.369C171.83 65.5387 171.556 65.7873 171.313 66.0517C170.912 66.4881 170.536 67.0354 170.214 67.5611C169.892 68.0891 169.618 68.6074 169.426 68.9927C169.385 69.0741 169.369 69.1101 169.35 69.1496C169.326 69.2038 169.298 69.2647 169.2 69.4586C169.031 69.794 169.089 70.0319 169.314 70.1399C169.683 70.3178 169.891 69.8328 170.034 69.5013C170.062 69.4371 170.087 69.3786 170.11 69.3318C170.297 68.9588 170.56 68.4606 170.868 67.9566C171.177 67.4503 171.524 66.9499 171.878 66.5653C172.244 66.1664 172.581 65.9941 172.822 65.9538C173.336 65.8679 173.734 66.1586 174.07 66.6636C174.274 66.9705 174.437 67.3132 174.547 67.6649L174.547 67.6653C174.607 67.8666 174.82 67.9814 175.022 67.9217C175.297 67.8406 175.322 67.5626 175.243 67.3353C175.173 67.1335 175.002 66.6866 174.707 66.2435C174.357 65.7164 173.754 65.0928 172.879 65.1403L172.772 63.2114Z" fill="url(#paint19_linear_3976_116076)"/>
<path d="M282.686 45.8004L269.788 46.9389L266.641 33.8057L255.352 42.9956L250.192 34.1945L242.814 44.1739L232.587 41.6432L231.296 54.2292L222.041 57.753L226.194 69.4312L219.226 75.2635L226.548 84.1946L220.858 93.3577L230.976 98.677L229.279 109.361L240.876 107.606L242.869 118.153L254.271 111.345L259.085 119.168L267.199 109.039L276.19 113.164L278.484 101.683L288.714 98.703L285.128 85.8477L293.258 78.8074L283.636 71.2312L289.086 61.7501L278.928 57.3363L282.686 45.8004Z" fill="url(#paint20_radial_3976_116076)"/>
<path d="M244.376 60.2813C244.658 59.3622 244.867 58.4919 245.039 57.5053C245.081 57.2725 244.925 57.0521 244.691 57.0103C244.46 56.9718 244.236 57.1236 244.194 57.3564C244.044 58.2149 243.873 58.9557 243.643 59.738C242.908 59.2774 242.049 58.9493 241.05 58.758C240.82 58.7106 240.593 58.8651 240.548 59.0975C240.504 59.3299 240.656 59.553 240.89 59.5977C243.053 60.0122 244.486 61.128 245.278 63.0076C245.341 63.1562 245.479 63.2534 245.63 63.2688C245.697 63.2758 245.77 63.2655 245.838 63.2369C246.056 63.1467 246.159 62.8965 246.068 62.6769C245.657 61.6985 245.095 60.9032 244.376 60.2813Z" fill="url(#paint21_linear_3976_116076)"/>
<path d="M262.496 58.7488C262.467 58.5147 262.251 58.3504 262.016 58.3796C260.179 58.6148 258.41 59.3279 256.974 60.3508C257.207 59.326 257.445 58.2839 257.716 57.2688C257.778 57.0411 257.641 56.8079 257.413 56.7459C257.183 56.6868 256.95 56.8198 256.887 57.0504C256.568 58.2442 256.29 59.4748 256.022 60.6649L255.892 61.2411C255.387 61.7226 254.952 62.2497 254.606 62.8097C254.481 63.0102 254.543 63.2743 254.745 63.3987C254.8 63.434 254.864 63.4524 254.926 63.4588C255.085 63.4751 255.247 63.4029 255.336 63.258C256.625 61.1741 259.29 59.593 262.128 59.2295C262.363 59.2003 262.528 58.9862 262.499 58.7521L262.496 58.7488Z" fill="url(#paint22_linear_3976_116076)"/>
<path d="M246.161 68.9594L243.873 64.6866L240.795 68.4087L239.199 67.8599C237.405 70.2087 235.883 72.713 234.202 75.1417L231.365 79.6411L231.713 85.6198C232.685 88.3296 235.054 95.84 235.054 95.84L238.415 94.2118L246.2 80.7339L246.164 68.9597L246.161 68.9594Z" fill="url(#paint23_linear_3976_116076)"/>
<path d="M260.07 66.6919C257.831 68.3256 255.736 70.1251 253.47 71.7236L246.161 68.959L246.197 80.7331L238.412 94.211L245.208 105.364L254.474 93.1485L261.32 74.2118L260.07 66.6948L260.07 66.6919Z" fill="url(#paint24_linear_3976_116076)"/>
<path d="M254.478 93.1465L260.215 96.4459L264.104 92.887L269.376 87.5709L268.025 78.6066L266.296 72.1604L261.321 74.2066L256.962 82.8367L254.476 93.1433L254.478 93.1465Z" fill="url(#paint25_linear_3976_116076)"/>
<path d="M251.583 75.9295L258.806 73.7673L258.265 80.4577L255.257 86.3645L247.675 86.9494L248.643 80.8835L251.583 75.9266L251.583 75.9295Z" fill="url(#paint26_linear_3976_116076)"/>
<path d="M242.507 76.3919L249.105 71.3599L253.625 76.3861L256.226 83.2626L250.357 94.3361L240.394 89.5601L239.318 81.7794L242.51 76.3922L242.507 76.3919Z" fill="url(#paint27_linear_3976_116076)"/>
<path d="M256.234 83.1561L248.763 84.7269L242.989 82.025L242.584 80.7452L249.253 79.9511L256.227 83.2206" fill="url(#paint28_linear_3976_116076)"/>
<path d="M260.722 91.1507L246.924 94.2765L251.253 79.561L260.418 78.5048L263.503 80.8181L260.722 91.1507Z" fill="url(#paint29_linear_3976_116076)"/>
<path d="M251.253 79.5606L257.669 87.2314L260.794 87.404L260.676 91.1011L254.43 88.8899L251.253 79.5576L251.253 79.5606Z" fill="#231F20"/>
<path d="M239.557 71.3014C239.557 71.3014 235.165 77.0041 234.278 78.187L233.006 82.7877L234.581 87.9176L242.556 95.9085L238.829 85.1539L239.554 71.3011L239.557 71.3014Z" fill="url(#paint30_linear_3976_116076)"/>
<path d="M243.39 78.7541L239.557 71.3008L238.832 85.1536L242.559 95.9082L245.228 84.5775L243.39 78.7541Z" fill="url(#paint31_linear_3976_116076)"/>
<path d="M233.006 82.7869L238.832 85.1535L245.228 84.5773L239.28 79.449L233.006 82.784L233.006 82.7869Z" fill="url(#paint32_linear_3976_116076)"/>
<path d="M234.933 81.7137C234.273 79.1946 230.607 68.217 230.607 68.217C225.534 67.2029 224.688 69.2119 223.019 76.4682C223.115 76.7793 227.331 83.6138 230.838 84.2554C232.787 84.612 233.802 84.7279 234.703 83.9517C235.172 83.5069 235.226 82.8326 234.933 81.7137Z" fill="url(#paint33_radial_3976_116076)"/>
<path d="M275.581 90.6999C286.286 87.3158 280.883 79.8672 276.584 78.2203L252.969 82.2063C252.268 82.3464 250.996 82.8353 251.515 83.6692C253.841 88.3511 264.876 94.084 275.581 90.6999Z" fill="url(#paint34_radial_3976_116076)"/>
<path d="M256.685 81.8481C256.685 81.8479 256.685 81.8478 256.686 81.8477L256.686 81.8506L256.685 81.8481Z" fill="url(#paint35_linear_3976_116076)"/>
<path d="M256.685 81.8481L256.662 81.7652C256.463 81.7934 256.263 81.8238 256.061 81.8543C255.243 81.9786 254.408 82.1055 253.604 82.0943C253.245 82.1012 252.923 81.9645 252.6 81.8277C252.223 81.6676 251.845 81.5072 251.407 81.5756C251.114 81.6166 250.843 81.7044 250.592 81.8534L250.601 81.9403C250.727 81.9882 250.855 82.0307 250.981 82.0729C251.315 82.1843 251.643 82.2938 251.928 82.4971C252.118 82.6203 252.423 82.7849 252.746 82.8269C254.073 82.9125 255.297 82.4136 256.494 81.9258C256.558 81.8998 256.621 81.8739 256.685 81.8481Z" fill="url(#paint36_linear_3976_116076)"/>
<path d="M254.621 84.1575L254.62 84.1576L254.615 84.071C253.52 84.009 252.43 83.8409 251.387 83.5324C251.089 83.4166 250.807 83.305 250.53 83.1956C249.834 82.921 249.173 82.6601 248.398 82.3813L248.335 82.443C248.812 83.5941 250.07 84.1202 251.23 84.2214C252.357 84.3993 253.504 84.36 254.62 84.1576L254.62 84.1605L254.621 84.1575Z" fill="url(#paint37_linear_3976_116076)"/>
<path d="M247.659 83.6857C249.058 86.2141 252.517 85.8343 254.887 85.1828L254.873 85.0954C254.235 85.1336 253.6 85.1663 252.975 85.1377C251.472 85.1521 250.195 84.626 248.865 84.0784C248.49 83.9237 248.11 83.7672 247.72 83.6208L247.659 83.6857Z" fill="url(#paint38_linear_3976_116076)"/>
<path d="M247.779 85.7922C249.649 87.7558 253.139 86.8191 255.294 85.8286L255.297 85.8289L255.267 85.7458C254.036 86.0491 252.772 86.2186 251.517 86.1758C250.914 86.1153 250.349 86.0356 249.783 85.9558L249.782 85.9557C249.149 85.8663 248.513 85.7767 247.82 85.7134L247.779 85.7922Z" fill="url(#paint39_linear_3976_116076)"/>
<path d="M232.921 80.6643C232.885 80.7076 232.851 80.7489 232.819 80.7872L232.821 80.7905L232.88 80.8558C232.94 80.8193 233 80.7823 233.059 80.7454C233.332 80.5771 233.603 80.4097 233.878 80.2946C234.035 80.2188 234.216 80.19 234.248 80.2318C234.292 80.2814 234.336 80.334 234.381 80.3877C234.581 80.6263 234.8 80.8868 235.117 81.0113C235.795 81.2822 236.523 80.9748 236.972 80.4579L236.945 80.3752C236.545 80.2763 236.151 80.2432 235.764 80.2107C235.636 80.2 235.508 80.1893 235.381 80.1763C235.254 80.1691 235.135 80.1391 235.006 80.0399L234.775 79.8504C234.077 79.2685 233.369 80.1233 232.921 80.6643Z" fill="url(#paint40_linear_3976_116076)"/>
<path d="M232.222 80.8265C233.191 81.1895 234.187 81.5199 235.2 81.6801C235.843 81.7263 236.406 81.7523 236.995 81.7794L236.995 81.7794C237.375 81.7969 237.765 81.8149 238.193 81.8391L238.227 81.9196C236.934 83.2594 234.937 82.4471 233.539 81.7408C233.069 81.4821 232.611 81.2101 232.181 80.9052L232.222 80.8265Z" fill="url(#paint41_linear_3976_116076)"/>
<path d="M234.625 83.7423C233.353 83.5229 232.122 83.047 230.943 82.5023L230.945 82.5055L230.899 82.5807C231.433 82.9762 231.998 83.3305 232.586 83.6545C234.328 84.574 236.797 85.4079 238.441 83.8554L238.405 83.7746C237.062 83.8412 235.935 83.8826 234.625 83.7423Z" fill="url(#paint42_linear_3976_116076)"/>
<path d="M233.829 85.234C232.801 84.7197 231.868 84.0077 231.027 83.2134L231.027 83.2163L230.958 83.2715C231.286 83.7673 231.667 84.23 232.077 84.6691C233.312 85.9187 235.218 87.3585 237.031 86.3951L237.019 86.308C235.858 85.9666 234.92 85.6778 233.829 85.234Z" fill="url(#paint43_linear_3976_116076)"/>
<path d="M29.6602 90.9902L22.3405 97.4019" stroke="black" stroke-width="0.345234" stroke-miterlimit="10"/>
<path d="M55.8976 94.825L54.6423 113.423L47.423 109.183L41.4866 119.246L37.552 109.472L19.7843 119.246L20.519 104.149L10.5442 98.7402L16.0852 88.3417L3.97437 74.7982L16.3959 74.9225L16.6134 60.6332L28.9728 67.4205L37.6899 49.458L42.9513 68.477L50.8883 59.0141L52.9424 73.9558L61.62 74.7982L56.5321 87.1112L61.9834 93.5074L55.8976 94.825Z" fill="url(#paint44_radial_3976_116076)"/>
<path d="M51.9413 103.367L55.5249 95.2606L47.76 91.3199C44.7574 88.7109 51.1058 82.956 51.9413 84.2506L61.5078 96.0581L52.0035 104.748C51.6341 104.499 51.5547 104.078 51.9448 103.367H51.9413Z" fill="url(#paint45_radial_3976_116076)"/>
<path d="M32.6363 114.846L25.7696 109.322L26.2253 100.878L45.2581 96.2588L51.2168 101.365L50.7093 109.236L32.6363 114.846Z" fill="url(#paint46_linear_3976_116076)"/>
<path d="M25.3339 110.201C25.1785 110.118 25.0024 109.955 24.7988 109.683C24.3085 109.03 15.049 100.638 14.9104 99.8231C14.7717 99.008 23.2173 86.683 25.237 86.2066C26.3148 85.9771 26.5902 88.1019 27.7034 89.6389C28.8165 91.1753 29.6773 91.8336 30.9551 93.0053L21.8643 100.245L26.3523 108.481C26.3523 108.481 25.9795 110.556 25.3339 110.204" fill="url(#paint47_radial_3976_116076)"/>
<path fill-rule="evenodd" clip-rule="evenodd" d="M53.3905 101.693C53.2999 101.661 53.21 101.625 53.1209 101.591L53.1209 101.591C52.9074 101.507 52.6984 101.425 52.4962 101.386C52.3546 101.338 52.2303 101.362 52.2442 101.386C52.2452 101.388 52.2462 101.389 52.247 101.389C52.2487 101.391 52.249 101.391 52.2442 101.403C51.778 102.253 50.6697 102.394 49.9619 101.572L49.9826 101.483C50.1691 101.383 50.3314 101.331 50.4867 101.296C50.7353 101.22 50.9701 101.151 51.2049 101.155L51.2183 101.155C51.3033 101.155 51.3858 101.155 51.4777 101.096C51.5119 101.073 51.5474 101.046 51.5845 101.018C51.7085 100.924 51.8505 100.816 52.0232 100.792C52.113 100.77 52.1942 100.783 52.2787 100.796C52.3014 100.799 52.3243 100.803 52.3477 100.806C52.3872 100.819 52.4689 100.852 52.5285 100.877L52.5756 100.896C52.9243 101.096 53.1971 101.362 53.4457 101.617L53.387 101.69L53.3905 101.693ZM53.5269 102.065L53.5284 102.064V102.067L53.5269 102.065ZM53.5269 102.065L53.4732 101.988C52.6756 102.247 51.8573 102.492 51.0287 102.62C50.1241 102.657 49.506 102.716 48.5945 102.951L48.5669 103.037C48.8962 103.378 49.3153 103.551 49.7533 103.602C49.1025 103.648 48.4783 103.692 47.7331 103.793L47.702 103.879C49.6148 105.495 52.3804 103.817 53.8892 102.661L53.8305 102.581C52.8707 102.982 51.8694 103.341 50.8301 103.52L50.7421 103.528C50.9342 103.479 51.1194 103.412 51.2911 103.331C52.1294 103.034 52.8575 102.579 53.5269 102.065ZM49.2201 105.519C51.2192 106.582 53.1626 104.297 53.9844 102.926L53.9107 102.802C53.81 102.889 53.7086 102.978 53.6062 103.069C53.0245 103.582 52.4118 104.123 51.713 104.449C51.6607 104.466 51.6092 104.484 51.5584 104.501C50.7199 104.785 50.0698 105.006 49.2201 105.426V105.519Z" fill="url(#paint48_radial_3976_116076)"/>
<path fill-rule="evenodd" clip-rule="evenodd" d="M25.7012 108.476C25.6114 108.502 25.5208 108.528 25.4295 108.552L25.433 108.545L25.3812 108.469C25.6539 108.241 25.9509 108.01 26.3134 107.844C26.3337 107.839 26.366 107.829 26.4011 107.818C26.4556 107.801 26.5166 107.782 26.5482 107.775C26.5737 107.775 26.5988 107.773 26.6237 107.771C26.7068 107.765 26.7877 107.76 26.8727 107.789C27.0394 107.829 27.1716 107.943 27.2864 108.043C27.3215 108.073 27.3549 108.102 27.3872 108.128C27.477 108.197 27.5667 108.203 27.653 108.207C27.8844 108.221 28.1122 108.307 28.3539 108.4C28.5024 108.449 28.6612 108.511 28.8373 108.621L28.8511 108.711C28.0708 109.446 26.9832 109.219 26.5965 108.366C26.5917 108.354 26.5919 108.353 26.5937 108.352C26.5945 108.351 26.5955 108.351 26.5965 108.348C26.6138 108.328 26.4929 108.293 26.3479 108.328C26.1412 108.35 25.924 108.412 25.7012 108.476ZM25.2613 108.897C25.8794 109.446 26.5665 109.944 27.3744 110.296C27.5356 110.386 27.7108 110.464 27.8943 110.526L27.8157 110.513C26.7972 110.258 25.8339 109.833 24.9154 109.37L24.8498 109.439V109.443C24.8735 109.464 24.8975 109.485 24.9218 109.506L24.884 109.526H24.8874C25.578 110.911 27.1467 113.428 29.2321 112.565C29.2678 112.54 29.2516 112.503 29.2321 112.472C28.8302 111.846 28.2372 111.656 27.6754 111.476C27.319 111.362 26.9752 111.252 26.7009 111.037C26.1895 110.637 25.8375 110.319 25.4478 109.943C26.9081 111.096 29.1099 112.331 30.8955 111.111L30.8748 111.024C30.1467 110.867 29.5327 110.774 28.892 110.679C29.3282 110.663 29.7564 110.529 30.1124 110.23L30.0917 110.144C29.2078 109.843 28.5966 109.74 27.6989 109.629C26.8841 109.439 26.0934 109.139 25.3235 108.825L25.2613 108.897Z" fill="url(#paint49_radial_3976_116076)"/>
<path d="M26.5562 101.136C26.6736 100.984 26.8911 100.957 27.0395 101.077L33.4712 106.083L50.4706 101.523C50.6535 101.474 50.8434 101.581 50.8917 101.768C50.9401 101.951 50.8331 102.141 50.6466 102.193L33.5334 106.784L32.9499 112.605C32.9396 112.695 32.8671 112.76 32.7773 112.76C32.7704 112.76 32.7669 112.76 32.76 112.76C32.6668 112.75 32.5943 112.667 32.6047 112.57L33.1881 106.746L26.6114 101.626C26.4595 101.509 26.4353 101.291 26.5527 101.143L26.5562 101.136Z" fill="#FD2D2E"/>
<path d="M43.4791 78.8174C44.4695 80.4482 44.6247 81.1085 46.4404 80.8444C45.2024 81.4453 44.2153 82.1517 44.0899 83.228C43.7201 82.6403 42.8519 82.3168 41.2903 82.3663C42.5977 81.8975 42.3567 81.4717 43.4791 78.8207V78.8174ZM36.2591 83.5548C34.9122 83.5548 34.3113 83.3006 33.6015 80.9996C33.2714 82.8978 31.3335 83.908 29.6399 83.7496C31.6537 83.9378 33.3638 84.6905 34.1694 85.8459C34.308 84.9711 34.9815 84.192 36.2624 83.5548H36.2591Z" fill="url(#paint50_radial_3976_116076)"/>
<path fill-rule="evenodd" clip-rule="evenodd" d="M32.5402 87.9266C32.3491 88.1223 32.3529 88.4359 32.5486 88.627C34.5065 90.5386 37.4704 90.8395 40.0676 90.0678C40.3297 89.9899 40.4791 89.7142 40.4012 89.452C40.3233 89.1898 40.0476 89.0404 39.7854 89.1183C37.412 89.8235 34.8625 89.5019 33.2405 87.9182C33.0448 87.7272 32.7313 87.7309 32.5402 87.9266Z" fill="url(#paint51_linear_3976_116076)"/>
<ellipse opacity="0.35" cx="172.469" cy="141.836" rx="46.6573" ry="6.1745" fill="url(#paint52_radial_3976_116076)"/>
<ellipse opacity="0.35" cx="253.342" cy="141.836" rx="46.6573" ry="6.1745" fill="url(#paint53_radial_3976_116076)"/>
<ellipse opacity="0.35" cx="90.3654" cy="141.651" rx="27.4572" ry="4.99223" fill="url(#paint54_radial_3976_116076)"/>
<ellipse opacity="0.35" cx="38.4464" cy="141.652" rx="34.4464" ry="5.99067" fill="url(#paint55_radial_3976_116076)"/>
<defs>
<linearGradient id="paint0_linear_3976_116076" x1="118.007" y1="82.2016" x2="122.602" y2="82.6929" gradientUnits="userSpaceOnUse">
<stop stop-color="#FF9330"/>
<stop offset="0.878495" stop-color="#FA4119"/>
</linearGradient>
<radialGradient id="paint1_radial_3976_116076" cx="0" cy="0" r="1" gradientUnits="userSpaceOnUse" gradientTransform="translate(90.4715 53.2828) rotate(173.43) scale(68.7455 64.178)">
<stop offset="0.221759" stop-color="#FFF8D6"/>
<stop offset="0.335" stop-color="#FFE767"/>
<stop offset="0.435" stop-color="#FF9D42"/>
<stop offset="0.686918" stop-color="#FA4119"/>
</radialGradient>
<linearGradient id="paint2_linear_3976_116076" x1="90.381" y1="45.7915" x2="80.3112" y2="45.7915" gradientUnits="userSpaceOnUse">
<stop offset="0.16" stop-color="#ED7100"/>
<stop offset="0.9" stop-color="#FA4119"/>
</linearGradient>
<linearGradient id="paint3_linear_3976_116076" x1="38.7263" y1="38.8559" x2="43.6994" y2="39.8755" gradientUnits="userSpaceOnUse">
<stop stop-color="#FA4119"/>
<stop offset="0.878495" stop-color="#FF9330"/>
</linearGradient>
<linearGradient id="paint4_linear_3976_116076" x1="107.84" y1="48.3437" x2="100.299" y2="48.3437" gradientUnits="userSpaceOnUse">
<stop offset="0.16" stop-color="#FA4119"/>
<stop offset="0.9" stop-color="#ED7100"/>
</linearGradient>
<linearGradient id="paint5_linear_3976_116076" x1="95.2337" y1="55.0988" x2="93.0231" y2="53.8398" gradientUnits="userSpaceOnUse">
<stop offset="0.1" stop-color="#FA4119"/>
<stop offset="0.84" stop-color="#ED7100"/>
</linearGradient>
<linearGradient id="paint6_linear_3976_116076" x1="42.1738" y1="34.6462" x2="31.965" y2="34.6462" gradientUnits="userSpaceOnUse">
<stop stop-color="#5DDDEF"/>
<stop offset="0.82" stop-color="#69BAE8"/>
</linearGradient>
<linearGradient id="paint7_linear_3976_116076" x1="34.0162" y1="25.861" x2="41.0216" y2="51.3829" gradientUnits="userSpaceOnUse">
<stop stop-color="#4298EB"/>
<stop offset="0.82" stop-color="#69BAE8"/>
</linearGradient>
<linearGradient id="paint8_linear_3976_116076" x1="43.1858" y1="41.2412" x2="29.9382" y2="30.6433" gradientUnits="userSpaceOnUse">
<stop offset="0.27" stop-color="#66B4D7"/>
<stop offset="0.32" stop-color="#70B9CE"/>
<stop offset="0.44" stop-color="#85C5BD"/>
<stop offset="0.58" stop-color="#94CDB2"/>
<stop offset="0.75" stop-color="#9DD2AB"/>
<stop offset="1" stop-color="#A0D4A9"/>
</linearGradient>
<linearGradient id="paint9_linear_3976_116076" x1="41.2121" y1="37.3357" x2="43.3038" y2="37.5801" gradientUnits="userSpaceOnUse">
<stop stop-color="#FA4119"/>
<stop offset="0.878495" stop-color="#FF9330"/>
</linearGradient>
<radialGradient id="paint10_radial_3976_116076" cx="0" cy="0" r="1" gradientUnits="userSpaceOnUse" gradientTransform="translate(169.773 76.6637) rotate(91.3986) scale(56.2585 58.6611)">
<stop offset="0.27967" stop-color="#F3F6FF"/>
<stop offset="0.445" stop-color="#D1DEFF"/>
<stop offset="0.607135" stop-color="#C3BCFF"/>
<stop offset="0.833404" stop-color="#BA61FF"/>
</radialGradient>
<linearGradient id="paint11_linear_3976_116076" x1="119.853" y1="47.3092" x2="161.225" y2="70.4184" gradientUnits="userSpaceOnUse">
<stop stop-color="#BA61FF"/>
<stop offset="0.314673" stop-color="#C3BCFF"/>
<stop offset="0.595" stop-color="#D1DEFF"/>
<stop offset="1" stop-color="#F3F6FF" stop-opacity="0"/>
</linearGradient>
<linearGradient id="paint12_linear_3976_116076" x1="124.336" y1="31.2923" x2="135.539" y2="50.2869" gradientUnits="userSpaceOnUse">
<stop offset="0.17792" stop-color="#A54AEA"/>
<stop offset="0.856452" stop-color="#7365EE"/>
</linearGradient>
<linearGradient id="paint13_linear_3976_116076" x1="124.336" y1="31.2923" x2="135.539" y2="50.2869" gradientUnits="userSpaceOnUse">
<stop offset="0.17792" stop-color="#A54AEA"/>
<stop offset="0.856452" stop-color="#7365EE"/>
</linearGradient>
<linearGradient id="paint14_linear_3976_116076" x1="124.336" y1="31.2923" x2="135.539" y2="50.2869" gradientUnits="userSpaceOnUse">
<stop offset="0.17792" stop-color="#A54AEA"/>
<stop offset="0.856452" stop-color="#7365EE"/>
</linearGradient>
<linearGradient id="paint15_linear_3976_116076" x1="209.692" y1="36.4705" x2="197.864" y2="48.9411" gradientUnits="userSpaceOnUse">
<stop offset="0.121505" stop-color="#A54AEA"/>
<stop offset="1" stop-color="#7365EE"/>
</linearGradient>
<linearGradient id="paint16_linear_3976_116076" x1="200.768" y1="47.7889" x2="174.024" y2="63.9072" gradientUnits="userSpaceOnUse">
<stop stop-color="#BA61FF"/>
<stop offset="0.469057" stop-color="#C3BCFF"/>
<stop offset="0.714401" stop-color="#D1DEFF"/>
<stop offset="0.917489" stop-color="#F3F6FF" stop-opacity="0"/>
</linearGradient>
<linearGradient id="paint17_linear_3976_116076" x1="166.667" y1="76.5842" x2="156.005" y2="83.746" gradientUnits="userSpaceOnUse">
<stop offset="0.0775548" stop-color="#685BDC"/>
<stop offset="0.547788" stop-color="#598CE9"/>
</linearGradient>
<linearGradient id="paint18_linear_3976_116076" x1="157.381" y1="64.3046" x2="161.944" y2="69.5806" gradientUnits="userSpaceOnUse">
<stop offset="0.1" stop-color="#685BDC"/>
<stop offset="1" stop-color="#598CE9"/>
</linearGradient>
<linearGradient id="paint19_linear_3976_116076" x1="177.698" y1="64.3043" x2="165.989" y2="70.5055" gradientUnits="userSpaceOnUse">
<stop offset="0.16" stop-color="#685BDC"/>
<stop offset="0.9" stop-color="#598CE9"/>
</linearGradient>
<radialGradient id="paint20_radial_3976_116076" cx="0" cy="0" r="1" gradientUnits="userSpaceOnUse" gradientTransform="translate(252.993 68.2447) rotate(51.0317) scale(75.5356 72.2013)">
<stop offset="0.27572" stop-color="#EFFFF7"/>
<stop offset="0.344177" stop-color="#B8FFE4"/>
<stop offset="0.434689" stop-color="#6FE8EC"/>
<stop offset="0.589449" stop-color="#4991E5"/>
</radialGradient>
<linearGradient id="paint21_linear_3976_116076" x1="240.483" y1="59.6559" x2="246.039" y2="63.3371" gradientUnits="userSpaceOnUse">
<stop offset="0.16" stop-color="#018EAD"/>
<stop offset="0.9" stop-color="#00AAB5"/>
</linearGradient>
<linearGradient id="paint22_linear_3976_116076" x1="254.5" y1="63.4151" x2="262.299" y2="60.694" gradientUnits="userSpaceOnUse">
<stop offset="0.1" stop-color="#00AAB5"/>
<stop offset="0.84" stop-color="#018EAD"/>
</linearGradient>
<linearGradient id="paint23_linear_3976_116076" x1="235.832" y1="101.258" x2="242.251" y2="55.3059" gradientUnits="userSpaceOnUse">
<stop stop-color="#A2D0EE"/>
<stop offset="1" stop-color="#B0CCEE"/>
</linearGradient>
<linearGradient id="paint24_linear_3976_116076" x1="247.258" y1="102.854" x2="253.675" y2="56.9013" gradientUnits="userSpaceOnUse">
<stop stop-color="#A2D0EE"/>
<stop offset="0.84" stop-color="#D1ECBC"/>
</linearGradient>
<linearGradient id="paint25_linear_3976_116076" x1="261.293" y1="94.8738" x2="265.254" y2="66.5308" gradientUnits="userSpaceOnUse">
<stop stop-color="#A2D0EE"/>
<stop offset="0.78" stop-color="#A6D6C4"/>
</linearGradient>
<linearGradient id="paint26_linear_3976_116076" x1="250.201" y1="82.9839" x2="258.016" y2="78.4828" gradientUnits="userSpaceOnUse">
<stop stop-color="#A2D0EE"/>
<stop offset="1" stop-color="#97E7DD"/>
</linearGradient>
<linearGradient id="paint27_linear_3976_116076" x1="247.398" y1="89.8729" x2="248.133" y2="75.4134" gradientUnits="userSpaceOnUse">
<stop stop-color="#A2D0EE"/>
<stop offset="1" stop-color="#5182BB"/>
</linearGradient>
<linearGradient id="paint28_linear_3976_116076" x1="242.492" y1="81.6719" x2="256.241" y2="83.0828" gradientUnits="userSpaceOnUse">
<stop offset="0.08" stop-color="#7954A3"/>
<stop offset="1" stop-color="#7CD1E6"/>
</linearGradient>
<linearGradient id="paint29_linear_3976_116076" x1="256.068" y1="83.2756" x2="254.458" y2="91.3826" gradientUnits="userSpaceOnUse">
<stop stop-color="#A2D0EE"/>
<stop offset="1" stop-color="#876ECD"/>
</linearGradient>
<linearGradient id="paint30_linear_3976_116076" x1="233.007" y1="82.7789" x2="245.283" y2="84.0387" gradientUnits="userSpaceOnUse">
<stop stop-color="#A2D0EE"/>
<stop offset="1" stop-color="#BB519E"/>
</linearGradient>
<linearGradient id="paint31_linear_3976_116076" x1="238.813" y1="86.1204" x2="248.591" y2="75.0634" gradientUnits="userSpaceOnUse">
<stop stop-color="#A2D0EE"/>
<stop offset="1" stop-color="#BB519E"/>
</linearGradient>
<linearGradient id="paint32_linear_3976_116076" x1="233.118" y1="81.6934" x2="245.395" y2="82.9531" gradientUnits="userSpaceOnUse">
<stop offset="0.12" stop-color="#87B3C1"/>
<stop offset="0.55" stop-color="#70B9CE"/>
<stop offset="1" stop-color="#A0CBD4"/>
</linearGradient>
<radialGradient id="paint33_radial_3976_116076" cx="0" cy="0" r="1" gradientUnits="userSpaceOnUse" gradientTransform="translate(230.465 66.0965) rotate(82.9934) scale(20.4804 18.102)">
<stop offset="0.0922551" stop-color="#EFFFF7" stop-opacity="0"/>
<stop offset="0.403969" stop-color="#B8FFE4"/>
<stop offset="0.671183" stop-color="#6FE8EC"/>
<stop offset="0.852971" stop-color="#4991E5"/>
</radialGradient>
<radialGradient id="paint34_radial_3976_116076" cx="0" cy="0" r="1" gradientUnits="userSpaceOnUse" gradientTransform="translate(276.102 71.6062) rotate(139.175) scale(31.9388 23.9604)">
<stop stop-color="#EFFFF7" stop-opacity="0"/>
<stop offset="0.286216" stop-color="#B8FFE4" stop-opacity="0.83"/>
<stop offset="0.585716" stop-color="#6FE8EC"/>
<stop offset="0.80101" stop-color="#4991E5"/>
</radialGradient>
<linearGradient id="paint35_linear_3976_116076" x1="248.22" y1="84.6584" x2="256.208" y2="86.493" gradientUnits="userSpaceOnUse">
<stop stop-color="#456CF5"/>
<stop offset="1" stop-color="#4991E5"/>
</linearGradient>
<linearGradient id="paint36_linear_3976_116076" x1="248.22" y1="84.6584" x2="256.208" y2="86.493" gradientUnits="userSpaceOnUse">
<stop stop-color="#456CF5"/>
<stop offset="1" stop-color="#4991E5"/>
</linearGradient>
<linearGradient id="paint37_linear_3976_116076" x1="248.22" y1="84.6584" x2="256.208" y2="86.493" gradientUnits="userSpaceOnUse">
<stop stop-color="#456CF5"/>
<stop offset="1" stop-color="#4991E5"/>
</linearGradient>
<linearGradient id="paint38_linear_3976_116076" x1="248.22" y1="84.6584" x2="256.208" y2="86.493" gradientUnits="userSpaceOnUse">
<stop stop-color="#456CF5"/>
<stop offset="1" stop-color="#4991E5"/>
</linearGradient>
<linearGradient id="paint39_linear_3976_116076" x1="248.22" y1="84.6584" x2="256.208" y2="86.493" gradientUnits="userSpaceOnUse">
<stop stop-color="#456CF5"/>
<stop offset="1" stop-color="#4991E5"/>
</linearGradient>
<linearGradient id="paint40_linear_3976_116076" x1="230.994" y1="81.6575" x2="239.711" y2="87.6453" gradientUnits="userSpaceOnUse">
<stop stop-color="#4991E5"/>
<stop offset="1" stop-color="#456CF5"/>
</linearGradient>
<linearGradient id="paint41_linear_3976_116076" x1="230.994" y1="81.6575" x2="239.711" y2="87.6453" gradientUnits="userSpaceOnUse">
<stop stop-color="#4991E5"/>
<stop offset="1" stop-color="#456CF5"/>
</linearGradient>
<linearGradient id="paint42_linear_3976_116076" x1="230.994" y1="81.6575" x2="239.711" y2="87.6453" gradientUnits="userSpaceOnUse">
<stop stop-color="#4991E5"/>
<stop offset="1" stop-color="#456CF5"/>
</linearGradient>
<linearGradient id="paint43_linear_3976_116076" x1="230.994" y1="81.6575" x2="239.711" y2="87.6453" gradientUnits="userSpaceOnUse">
<stop stop-color="#4991E5"/>
<stop offset="1" stop-color="#456CF5"/>
</linearGradient>
<radialGradient id="paint44_radial_3976_116076" cx="0" cy="0" r="1" gradientUnits="userSpaceOnUse" gradientTransform="translate(35.4377 83.5023) rotate(-34.872) scale(53.3368 49.0445)">
<stop offset="0.179636" stop-color="#FFF9FF"/>
<stop offset="0.273686" stop-color="#FFE2FE"/>
<stop offset="0.564578" stop-color="#FF89AC"/>
<stop offset="0.869362" stop-color="#FC2C2C"/>
</radialGradient>
<radialGradient id="paint45_radial_3976_116076" cx="0" cy="0" r="1" gradientUnits="userSpaceOnUse" gradientTransform="translate(46.9593 85.7059) rotate(39.629) scale(20.5024 19.1105)">
<stop offset="0.0822582" stop-color="#FFF9FF" stop-opacity="0"/>
<stop offset="0.262081" stop-color="#FFE2FE" stop-opacity="0.4"/>
<stop offset="0.584229" stop-color="#FF89AC"/>
<stop offset="0.869362" stop-color="#FC2C2C"/>
</radialGradient>
<linearGradient id="paint46_linear_3976_116076" x1="38.4932" y1="96.2588" x2="38.4932" y2="114.846" gradientUnits="userSpaceOnUse">
<stop stop-color="#E9BDB8"/>
<stop offset="1" stop-color="#FC2D99"/>
</linearGradient>
<radialGradient id="paint47_radial_3976_116076" cx="0" cy="0" r="1" gradientUnits="userSpaceOnUse" gradientTransform="translate(28.5633 87.782) rotate(122.416) scale(20.2148 20.5142)">
<stop offset="0.154701" stop-color="#FFF9FF"/>
<stop offset="0.321764" stop-color="#FFE2FE"/>
<stop offset="0.72" stop-color="#FF89AC"/>
<stop offset="1" stop-color="#FC2C2C"/>
</radialGradient>
<radialGradient id="paint48_radial_3976_116076" cx="0" cy="0" r="1" gradientUnits="userSpaceOnUse" gradientTransform="translate(53.4869 102.611) rotate(161.522) scale(7.24688 7.79687)">
<stop stop-color="#FD2D2E"/>
<stop offset="1" stop-color="#C93131"/>
</radialGradient>
<radialGradient id="paint49_radial_3976_116076" cx="0" cy="0" r="1" gradientUnits="userSpaceOnUse" gradientTransform="translate(28.3085 111.325) rotate(-146.598) scale(4.14293 4.35505)">
<stop stop-color="#C93131"/>
<stop offset="1" stop-color="#FD2D2E"/>
</radialGradient>
<radialGradient id="paint50_radial_3976_116076" cx="0" cy="0" r="1" gradientUnits="userSpaceOnUse" gradientTransform="translate(39.6868 86.3114) rotate(-22.211) scale(17.6732 6.16459)">
<stop offset="0.0994933" stop-color="#E20ABD"/>
<stop offset="0.575463" stop-color="#DF0A70"/>
</radialGradient>
<linearGradient id="paint51_linear_3976_116076" x1="41.8948" y1="87.7773" x2="34.7659" y2="91.3433" gradientUnits="userSpaceOnUse">
<stop offset="0.16" stop-color="#E20ABD"/>
<stop offset="0.909943" stop-color="#DF0A70"/>
</linearGradient>
<radialGradient id="paint52_radial_3976_116076" cx="0" cy="0" r="1" gradientUnits="userSpaceOnUse" gradientTransform="translate(172.469 141.836) scale(46.6573 6.1745)">
<stop stop-color="#E4EBFD"/>
<stop offset="0.66" stop-color="#E4EBFD"/>
<stop offset="1" stop-color="#FBFCFE" stop-opacity="0"/>
</radialGradient>
<radialGradient id="paint53_radial_3976_116076" cx="0" cy="0" r="1" gradientUnits="userSpaceOnUse" gradientTransform="translate(253.342 141.836) scale(46.6573 6.1745)">
<stop stop-color="#E4EBFD"/>
<stop offset="0.66" stop-color="#E4EBFD"/>
<stop offset="1" stop-color="#FBFCFE" stop-opacity="0"/>
</radialGradient>
<radialGradient id="paint54_radial_3976_116076" cx="0" cy="0" r="1" gradientUnits="userSpaceOnUse" gradientTransform="translate(90.3654 141.651) scale(27.4572 4.99223)">
<stop stop-color="#E4EBFD"/>
<stop offset="0.66" stop-color="#E4EBFD"/>
<stop offset="1" stop-color="#FBFCFE" stop-opacity="0"/>
</radialGradient>
<radialGradient id="paint55_radial_3976_116076" cx="0" cy="0" r="1" gradientUnits="userSpaceOnUse" gradientTransform="translate(38.4464 141.652) scale(34.4464 5.99067)">
<stop stop-color="#E4EBFD"/>
<stop offset="0.66" stop-color="#E4EBFD"/>
<stop offset="1" stop-color="#FBFCFE" stop-opacity="0"/>
</radialGradient>
</defs>
</svg>
