<svg width="100%" height="100%" viewBox="0 0 300 150" fill="none" xmlns="http://www.w3.org/2000/svg">
<path fill-rule="evenodd" clip-rule="evenodd" d="M81.857 36.9785L90.3112 42.5328L93.7941 39.134L98.2724 44.0253L101.008 42.2012L105.898 50.1598L111.038 48.5838L109.712 60.1918L113.864 64.5009L107.805 71.3L109.464 80.7512H99.1009L89.897 93.9329L83.4309 77.1873L68.1773 80.1704L72.8196 66.4911L67.6797 58.6992L74.56 53.7259L71.3269 45.6008L80.8619 44.8542L81.857 36.9785Z" fill="url(#paint0_radial_3976_116077)"/>
<path fill-rule="evenodd" clip-rule="evenodd" d="M93.3125 51.8738C94.9448 51.9953 95.1677 50.6423 94.8052 48.7646C95.8093 51.6599 96.8316 52.8846 98.4706 53.2381C96.5681 52.637 96.03 53.4024 95.7418 54.4133C95.8567 53.0265 94.9313 52.2475 93.3125 51.8738Z" fill="#DE11A5"/>
<path fill-rule="evenodd" clip-rule="evenodd" d="M101.04 53.7938C102.141 54.1495 102.431 52.9428 102.388 51.0967C102.53 53.0081 102.938 54.6516 104.309 55.3337C103.215 54.9893 102.593 55.3382 102.517 55.7142C102.188 54.6291 101.792 53.9919 101.04 53.7938Z" fill="#DE11A5"/>
<path d="M99.4026 59.9383C99.9418 60.1042 100.615 59.4708 100.907 58.5234C101.199 57.576 100.998 56.6735 100.459 56.5075C99.9195 56.3416 99.246 56.975 98.9544 57.9224C98.6627 58.8698 98.8634 59.7723 99.4026 59.9383Z" fill="#DE11A5"/>
<path fill-rule="evenodd" clip-rule="evenodd" d="M104.191 54.4148C105.903 50.8651 114.927 38.4387 115.505 40.2423C116.083 42.0459 111.837 64.4221 106.553 67.6821C101.269 70.942 102.17 57.1142 104.191 54.4148Z" fill="url(#paint1_radial_3976_116077)"/>
<path fill-rule="evenodd" clip-rule="evenodd" d="M83.0573 50.7052L65.1807 30.2451L74.2856 61.6108C75.5239 66.557 88.1163 56.2143 83.0573 50.7052Z" fill="url(#paint2_radial_3976_116077)"/>
<path d="M62.3281 40.6954L68.0062 26.4443" stroke="#FFDB7E" stroke-width="0.699023" stroke-miterlimit="1.5" stroke-linecap="round" stroke-linejoin="round"/>
<path fill-rule="evenodd" clip-rule="evenodd" d="M115.228 40.4218C115.208 40.4526 115.165 40.4607 115.136 40.4398C115.104 40.4189 115.095 40.377 115.118 40.3461C115.26 40.0922 115.44 39.7991 115.629 39.4758C115.897 39.0165 116.176 38.5145 116.51 38.0511C116.656 37.8478 116.802 37.6517 116.969 37.479C117.034 37.4124 117.099 37.3487 117.171 37.2958C117.223 37.258 117.275 37.2278 117.331 37.199C117.399 37.1634 117.462 37.1317 117.532 37.1055C117.752 37.0231 117.932 36.9833 118.139 36.9439C118.229 36.9266 118.308 36.9063 118.394 36.8957C118.428 36.8815 118.468 36.898 118.482 36.9324C118.495 36.9671 118.479 37.0065 118.446 37.0207C118.207 37.2192 118.052 37.4831 117.824 37.7913C117.793 37.8352 117.761 37.878 117.723 37.9187C117.669 37.9766 117.608 38.0304 117.547 38.0844C117.381 38.2296 117.205 38.3681 117.032 38.5216C116.622 38.8897 116.212 39.2677 115.868 39.6509C115.62 39.9269 115.411 40.196 115.228 40.4218Z" fill="#FE5565"/>
<path fill-rule="evenodd" clip-rule="evenodd" d="M115.596 40.1777C115.569 40.2029 115.526 40.2006 115.502 40.1732C115.477 40.1455 115.479 40.1027 115.506 40.0777C115.792 39.7742 116.141 39.5407 116.517 39.3332C117.071 39.0277 117.677 38.7964 118.291 38.6415C118.458 38.5997 118.622 38.5607 118.786 38.5375C118.899 38.5218 119.009 38.508 119.12 38.5112C119.253 38.5148 119.374 38.5357 119.498 38.5605C119.73 38.6069 119.908 38.6755 120.11 38.7228C120.203 38.7444 120.284 38.7573 120.369 38.7737C120.408 38.7715 120.439 38.7998 120.441 38.837C120.444 38.8743 120.414 38.9063 120.378 38.9086C120.295 38.9356 120.216 38.9576 120.126 38.9898C119.932 39.059 119.764 39.1459 119.543 39.2256C119.453 39.2584 119.367 39.2908 119.271 39.3143C119.181 39.3356 119.088 39.3501 118.994 39.3595C118.793 39.3795 118.584 39.3784 118.372 39.3899C117.89 39.4162 117.402 39.4376 116.931 39.5556C116.441 39.6792 115.983 39.8812 115.596 40.1777Z" fill="#FE5565"/>
<path fill-rule="evenodd" clip-rule="evenodd" d="M115.564 40.9431C115.528 40.951 115.492 40.9278 115.485 40.8915C115.476 40.8551 115.499 40.819 115.537 40.8112C116.015 40.6734 116.503 40.6007 116.987 40.5514C117.762 40.4728 118.518 40.4681 119.227 40.5412C119.43 40.5622 119.628 40.5858 119.819 40.6248C119.952 40.6518 120.083 40.681 120.205 40.7256C120.353 40.7799 120.484 40.8472 120.612 40.9188C120.857 41.0543 121.042 41.1964 121.242 41.3213C121.337 41.3812 121.425 41.4292 121.51 41.481C121.546 41.4929 121.567 41.5314 121.553 41.5667C121.542 41.6018 121.504 41.6208 121.468 41.6088C121.368 41.5976 121.272 41.5836 121.159 41.5755C120.929 41.5588 120.702 41.5717 120.43 41.5595C120.317 41.5546 120.209 41.5521 120.092 41.5365C119.984 41.5224 119.876 41.5012 119.766 41.4746C119.534 41.4181 119.3 41.3407 119.052 41.2738C118.514 41.1282 117.949 40.9755 117.35 40.9114C116.764 40.8485 116.163 40.8566 115.564 40.9431Z" fill="#FE5565"/>
<path fill-rule="evenodd" clip-rule="evenodd" d="M115.398 40.286C115.452 40.2893 115.492 40.3359 115.49 40.39C115.485 40.4442 115.44 40.4854 115.386 40.4823C114.738 40.596 114.571 40.3542 114.457 40.1241C114.346 39.9032 114.281 39.6038 114.13 39.1416C114.119 39.1137 114.13 39.0835 114.13 39.0518C114.13 38.9989 114.168 38.9808 114.179 38.9248C114.22 38.7174 114.285 38.6708 114.292 38.4049C114.258 38.3633 114.263 38.3014 114.303 38.2663C114.346 38.2314 114.407 38.2365 114.443 38.2782C114.513 38.2953 114.54 38.3124 114.605 38.3284C114.83 38.3829 114.864 38.4047 115.044 38.4849C115.107 38.513 115.123 38.5468 115.175 38.586C115.217 38.6177 115.238 38.651 115.265 38.6931C115.301 38.7519 115.314 38.8212 115.323 38.8858C115.343 39.0358 115.344 39.1695 115.312 39.2985C115.26 39.5005 115.204 39.6495 115.132 39.7997C115.094 39.8798 115.04 39.9282 115.026 39.9953C115.019 40.03 114.959 40.0509 114.983 40.08C115.053 40.1576 115.175 40.2238 115.398 40.286Z" fill="#FE5565"/>
<path d="M70.6827 27.5581C74.4268 27.5581 77.4621 24.523 77.4621 20.7791C77.4621 17.0351 74.4268 14 70.6827 14C66.9386 14 63.9033 17.0351 63.9033 20.7791C63.9033 24.523 66.9386 27.5581 70.6827 27.5581Z" fill="#FF6060"/>
<path d="M72.8138 20.2967L73.9885 18.3391L75.0022 18.9474L73.4928 21.4627L73.4824 21.4565L70.6022 26.2326L69.5885 25.6244L71.5485 22.3723C70.8702 22.4526 70.2329 22.3141 69.6367 21.9563C69.1569 21.6684 68.7907 21.2899 68.536 20.8198C68.2834 20.351 68.1543 19.8506 68.1529 19.3209C68.1515 18.7911 68.2926 18.2828 68.5766 17.7955L69.7634 15.8178L70.7771 16.4261L69.6025 18.3834C69.3411 18.8427 69.2712 19.317 69.395 19.8074C69.5189 20.2978 69.803 20.6765 70.2454 20.942C70.663 21.1926 71.104 21.2674 71.5725 21.1693C72.0411 21.0711 72.4231 20.8254 72.7183 20.4324L72.8034 20.2905L72.8138 20.2967Z" fill="black"/>
<path fill-rule="evenodd" clip-rule="evenodd" d="M68.6516 31.0991C69.0903 29.9587 68.7184 28.9661 67.6904 28.0951C67.3583 27.8126 66.3288 27.126 66.0983 27.295C65.8679 27.464 65.7568 27.9381 66.2465 28.6205C67.0193 29.6926 64.3256 30.2073 64.9685 31.5289C65.0781 31.7543 65.9182 33.0677 66.4374 33.4246C67.6762 34.2766 68.1868 32.2054 68.6516 31.0991Z" fill="#FD3639"/>
<ellipse opacity="0.25" cx="231.076" cy="143.438" rx="49.5808" ry="6.56138" fill="url(#paint3_radial_3976_116077)"/>
<ellipse opacity="0.25" cx="150.329" cy="143.438" rx="49.5808" ry="6.56138" fill="url(#paint4_radial_3976_116077)"/>
<ellipse opacity="0.25" cx="84.3513" cy="143.438" rx="49.5808" ry="6.56138" fill="url(#paint5_radial_3976_116077)"/>
<path d="M52.5755 110.066L48.3496 93.0049" stroke="#73FF31" stroke-width="0.305822" stroke-miterlimit="1.5" stroke-linecap="round" stroke-linejoin="round"/>
<path fill-rule="evenodd" clip-rule="evenodd" d="M99.6099 80.9223C105.081 83.9954 111.263 90.8913 114.841 93.7843C111.327 98.1925 104.626 100.352 101.01 96.2856L106.504 94.4035L98.1691 96.2856C92.671 97.5959 94.4518 78.7655 99.6099 80.9223Z" fill="url(#paint6_radial_3976_116077)"/>
<path fill-rule="evenodd" clip-rule="evenodd" d="M97.3991 117.318L89.4874 109.792L68.4229 122.175V108.025L54.2589 101.172L57.6495 93.231L48.9658 81.0106L57.6495 75.5443L60.0608 62.68L71.4779 65.895L75.4475 52.4453C79.5924 56.8062 84.2641 59.1341 88.8458 66.5388L93.6302 61.0725C113.758 90.6487 98.0971 110.654 97.3991 117.318Z" fill="url(#paint7_radial_3976_116077)"/>
<path fill-rule="evenodd" clip-rule="evenodd" d="M50.6416 99.9748C52.9448 103.156 62.3852 108.998 66.0731 108.998C73.5029 103.698 76.0585 101.593 80.0345 98.0206C85.411 93.6867 74.8652 76.9816 70.8689 84.8343L64.6749 99.1147L50.6416 99.9748Z" fill="url(#paint8_radial_3976_116077)"/>
<path fill-rule="evenodd" clip-rule="evenodd" d="M83.8381 84.0347C82.1635 83.8302 80.7444 83.9984 79.1612 84.6662C78.9751 84.7447 78.7607 84.6575 78.6822 84.4714C78.6037 84.2853 78.6909 84.0708 78.877 83.9923C80.5854 83.2717 82.134 83.0898 83.9267 83.3087C84.1272 83.3332 84.2698 83.5155 84.2454 83.716C84.2209 83.9165 84.0385 84.0592 83.8381 84.0347Z" fill="#DE11A5"/>
<path fill-rule="evenodd" clip-rule="evenodd" d="M81.6628 83.5295C81.1893 82.1218 80.5169 81.0584 79.3853 80.0545C79.2523 79.9365 79.2402 79.733 79.3582 79.6C79.4762 79.467 79.6796 79.4548 79.8126 79.5728C81.0338 80.6562 81.7662 81.8172 82.2731 83.3242C82.3298 83.4927 82.2391 83.6753 82.0706 83.732C81.902 83.7887 81.7195 83.698 81.6628 83.5295Z" fill="#DE11A5"/>
<path fill-rule="evenodd" clip-rule="evenodd" d="M92.0194 81.6119C91.5826 80.313 90.9622 79.3319 89.9181 78.4056C89.7954 78.2968 89.7842 78.109 89.8931 77.9863C90.0019 77.8636 90.1897 77.8524 90.3124 77.9612C91.4391 78.9608 92.1149 80.032 92.5825 81.4225C92.6348 81.578 92.5512 81.7464 92.3957 81.7987C92.2402 81.851 92.0717 81.7674 92.0194 81.6119Z" fill="#DE11A5"/>
<path fill-rule="evenodd" clip-rule="evenodd" d="M93.7192 81.7562C93.1142 81.7899 92.4536 82.0205 91.4829 82.5335C91.3044 82.6279 91.0831 82.5597 90.9888 82.3811C90.8944 82.2026 90.9626 81.9813 91.1412 81.8869C92.1405 81.3587 92.9141 81.0685 93.6785 81.026C94.4478 80.9832 95.1627 81.1936 96.0361 81.5695C96.2216 81.6494 96.3072 81.8645 96.2274 82.05C96.1475 82.2355 95.9324 82.3212 95.7469 82.2413C94.9091 81.8807 94.3193 81.7228 93.7192 81.7562Z" fill="#DE11A5"/>
<path fill-rule="evenodd" clip-rule="evenodd" d="M90.7709 84.4873C90.9729 84.4873 91.1366 84.651 91.1366 84.853C91.1366 85.6474 90.9756 86.3045 90.6661 86.7901C90.3511 87.2844 89.8898 87.5864 89.343 87.6587C88.2782 87.7994 87.0418 87.0653 85.9903 85.6646C85.869 85.5031 85.9016 85.2739 86.0631 85.1526C86.2247 85.0314 86.4539 85.064 86.5751 85.2255C87.5721 86.5535 88.5798 87.0218 89.2471 86.9336C89.5662 86.8914 89.8429 86.7211 90.0493 86.397C90.2614 86.0643 90.4053 85.5571 90.4053 84.853C90.4053 84.651 90.569 84.4873 90.7709 84.4873Z" fill="#DE11A5"/>
<path d="M49.3132 95.6126C53.2867 94.6301 55.5858 90.1053 54.4485 85.5061C53.3111 80.9069 49.168 77.9749 45.1946 78.9574C41.2211 79.9399 38.922 84.4647 40.0593 89.0639C41.1967 93.6631 45.3398 96.5951 49.3132 95.6126Z" fill="#04FFE3"/>
<path d="M44.7168 81.6318L47.3565 80.9791L50.306 92.9063L48.6447 93.3171L46.1055 83.0488L45.127 83.2907L44.7168 81.6318Z" fill="black"/>
<path fill-rule="evenodd" clip-rule="evenodd" d="M51.7761 98.3852C51.2809 97.2043 50.2798 96.7232 48.8705 96.8098C48.4144 96.8369 47.1376 97.0641 47.0859 97.3591C47.0341 97.654 47.2939 98.0932 48.1593 98.2543C49.5213 98.5049 47.8568 100.848 49.3015 101.381C49.5479 101.472 51.1359 101.857 51.7875 101.75C53.3424 101.496 52.2267 99.5591 51.7761 98.3852Z" fill="#FD3639"/>
<path d="M232.688 102.784C243.172 104.507 253.068 97.4037 254.79 86.9197C256.512 76.4357 249.409 66.5406 238.925 64.8185C228.441 63.0963 218.545 70.1992 216.823 80.6832C215.1 91.1672 222.203 101.062 232.688 102.784Z" fill="#D69A9A" fill-opacity="0.36"/>
<path fill-rule="evenodd" clip-rule="evenodd" d="M253.265 100.378L255.462 111.626L242.459 104.579L235.018 111.626L225.571 102.465L213.93 97.2185L215.171 89.492L207.274 79.6822L215.745 74.6051L218.033 62.2026L229.58 64.5618L240.933 53.4238L245.8 66.0198L258.968 61.2495L255.047 77.6603L266.6 82.5204L255.047 91.7804L260.206 98.3627L253.265 100.378Z" fill="url(#paint9_radial_3976_116077)"/>
<path fill-rule="evenodd" clip-rule="evenodd" d="M220.47 79.6816L205.972 88.2645C211.769 96.5195 217.83 102.179 224.384 103.043L215.746 91.2584C215.746 91.2584 220.67 92.3012 221.909 91.2584C223.148 90.2156 224.049 77.5654 220.47 79.6816Z" fill="url(#paint10_radial_3976_116077)"/>
<path fill-rule="evenodd" clip-rule="evenodd" d="M224.054 86.9012C224.235 86.8551 224.419 86.9645 224.465 87.1454C224.674 87.9694 225.201 88.5586 225.879 88.775C226.553 88.9901 227.452 88.8598 228.45 88.0848C228.598 87.9702 228.81 87.9969 228.925 88.1444C229.039 88.2919 229.012 88.5043 228.865 88.6189C227.739 89.493 226.612 89.7189 225.673 89.4192C224.738 89.1206 224.067 88.3238 223.809 87.3122C223.763 87.1313 223.873 86.9472 224.054 86.9012Z" fill="#DE11A5"/>
<path fill-rule="evenodd" clip-rule="evenodd" d="M235.42 88.3265C235.6 88.2753 235.787 88.3794 235.838 88.559C236.151 89.6559 236.775 90.3063 237.548 90.4564C238.333 90.609 239.41 90.273 240.679 89.0779C240.815 88.9499 241.029 88.9564 241.157 89.0923C241.285 89.2283 241.279 89.4423 241.143 89.5703C239.801 90.8335 238.512 91.3327 237.419 91.1202C236.312 90.9051 235.543 89.9902 235.188 88.7444C235.137 88.5648 235.241 88.3777 235.42 88.3265Z" fill="#DE11A5"/>
<path fill-rule="evenodd" clip-rule="evenodd" d="M215.746 140.501C215.746 140.501 227.842 135.993 220.564 119.518C216.168 109.569 216.73 102.423 218.381 102.423L237.53 103.827C238.066 106.217 240.217 114.295 243.688 121.445C253.245 141.126 238.87 142.429 238.87 142.429L215.746 140.501Z" fill="url(#paint11_linear_3976_116077)"/>
<path fill-rule="evenodd" clip-rule="evenodd" d="M233.984 97.5823C234.009 97.7673 233.88 97.9378 233.695 97.9632C233.075 98.0482 232.469 98.3815 231.892 98.8363C231.317 99.2897 230.798 99.841 230.344 100.331C230.217 100.468 230.003 100.476 229.866 100.349C229.729 100.222 229.721 100.008 229.848 99.8707C230.3 99.3836 230.852 98.7954 231.474 98.3052C232.094 97.8162 232.812 97.4016 233.603 97.2932C233.788 97.2678 233.959 97.3973 233.984 97.5823Z" fill="#DE11A5"/>
<path fill-rule="evenodd" clip-rule="evenodd" d="M220.003 87.4676L221.765 99.771H223.002L220.77 87.083L220.003 87.4676Z" fill="#4C4C4C"/>
<path fill-rule="evenodd" clip-rule="evenodd" d="M250.2 83.3078C245.949 79.9294 242.301 90.7701 244.448 94.0447L247.744 97.8785L243.604 104.499C247.744 105.157 256.842 97.4562 260.437 92.8462L250.2 83.3078Z" fill="url(#paint12_radial_3976_116077)"/>
<path fill-rule="evenodd" clip-rule="evenodd" d="M225.099 97.7154C224.162 96.1489 220.118 95.3562 219.406 97.7154C219.102 98.7181 219.861 99.1876 220.078 100.134C220.263 100.948 219.689 102.368 220.439 102.823C221.157 103.26 223.528 103.658 225.099 102.823C226.352 102.156 224.922 100.386 224.356 99.2513C226.05 99.407 226.128 98.8172 225.099 97.7154Z" fill="black"/>
<path fill-rule="evenodd" clip-rule="evenodd" d="M218.383 102.422C219.468 102.422 221.023 105.498 221.957 112.878C233.789 111.644 246.07 112.472 255.047 118.661C252.419 111.753 248.585 105.166 244.277 102.422H218.383Z" fill="url(#paint13_linear_3976_116077)"/>
<path d="M240.19 116.622L232.521 116.881L232.545 117.572L240.214 117.313L240.19 116.622Z" fill="#FFBBC2"/>
<path d="M241.472 117.571L232.925 118.034L233.374 119.495L241.921 119.032L241.472 117.571Z" fill="#FFBBC2"/>
<path d="M238.483 114.568L220.522 115.013L221.712 116.467L239.672 116.023L238.483 114.568Z" fill="#FFBBC2"/>
<path d="M207.141 33.5666C207.708 33.5666 208.168 33.1066 208.168 32.5391C208.168 31.9717 207.708 31.5117 207.141 31.5117C206.573 31.5117 206.113 31.9717 206.113 32.5391C206.113 33.1066 206.573 33.5666 207.141 33.5666Z" fill="#00FFB4"/>
<path fill-rule="evenodd" clip-rule="evenodd" d="M149.491 41.9572L150.267 49.0821L158.716 52.0713L155.481 58.2029L159.648 62.8389L154.868 70.2469L157.015 82.9019L145.371 74.7554L136.033 90.9917L131.97 77.1642L121.202 73.1016L123.484 60.3923L119.971 53.6L127.301 49.4383L124.548 42.6508L134.063 45.4088L137.661 38.6943L143.998 44.609L149.491 41.9572Z" fill="url(#paint14_radial_3976_116077)"/>
<path fill-rule="evenodd" clip-rule="evenodd" d="M129.621 86.3531L128.859 75.9028C128.859 75.9028 132.349 72.933 133.736 71.282C135.549 69.1237 132.848 58.4535 130.927 60.7716C127.77 64.5816 122.913 71.3884 123.246 72.6911C123.428 73.3954 126.38 85.7895 129.621 86.3531Z" fill="url(#paint15_linear_3976_116077)"/>
<path fill-rule="evenodd" clip-rule="evenodd" d="M142.557 49.0847L146.641 28.7529C150.187 38.8007 152.636 44.9536 152.636 58.2928C152.78 61.4943 141.901 52.3569 142.557 49.0847Z" fill="url(#paint16_radial_3976_116077)"/>
<path fill-rule="evenodd" clip-rule="evenodd" d="M141.091 66.3071C141.168 66.4494 141.115 66.6272 140.972 66.7042C139.551 67.4724 138.144 67.4278 136.808 67.109C136.651 67.0714 136.554 66.9133 136.591 66.7559C136.629 66.5985 136.787 66.5013 136.944 66.5389C138.198 66.8382 139.444 66.8643 140.694 66.1886C140.836 66.1117 141.014 66.1647 141.091 66.3071Z" fill="#DE11A5"/>
<path fill-rule="evenodd" clip-rule="evenodd" d="M146.704 61.7801C146.861 61.823 146.952 61.9842 146.909 62.1403C146.713 62.8555 146.224 63.5082 145.678 64.0062C145.133 64.5029 144.496 64.8776 143.965 65.0084C143.808 65.0471 143.649 64.9511 143.61 64.7939C143.571 64.6368 143.667 64.478 143.825 64.4393C144.232 64.339 144.785 64.0272 145.283 63.5731C145.779 63.1203 146.187 62.5579 146.344 61.985C146.387 61.829 146.548 61.7372 146.704 61.7801Z" fill="#DE11A5"/>
<path d="M145.588 71.0964C146.177 70.8369 146.561 70.413 146.445 70.1495C146.329 69.886 145.757 69.8828 145.168 70.1424C144.578 70.4019 144.195 70.8259 144.311 71.0893C144.427 71.3528 144.998 71.356 145.588 71.0964Z" fill="#DE11A5"/>
<path d="M151.491 36.3492L143.207 22.5721" stroke="#FC2C2C" stroke-width="0.457825" stroke-miterlimit="1.5" stroke-linecap="round" stroke-linejoin="round"/>
<path fill-rule="evenodd" clip-rule="evenodd" d="M144.807 30.2793C144.101 29.0215 144.285 27.8734 145.19 26.8161C145.482 26.4733 146.427 25.6242 146.707 25.7989C146.987 25.9736 147.205 26.5015 146.831 27.3074C146.239 28.5739 149.202 28.9644 148.8 30.5036C148.732 30.7661 148.12 32.31 147.645 32.7503C146.513 33.801 145.534 31.4965 144.807 30.2793Z" fill="#FC2C2C"/>
<path fill-rule="evenodd" clip-rule="evenodd" d="M147.913 26.8751L125.648 8.78984L149.973 0.00052636L147.913 26.8751Z" fill="#FF56E4"/>
<path d="M144.765 11.5012C145.041 12.1189 145.142 12.7488 145.06 13.3944C144.981 14.0385 144.754 14.6264 144.375 15.1598C144.752 15.3121 145.089 15.5317 145.39 15.8175C145.692 16.1037 145.928 16.4434 146.104 16.836C146.349 17.3855 146.438 17.9471 146.37 18.5202C146.306 19.0922 146.103 19.6143 145.766 20.0852C145.432 20.5546 144.986 20.9205 144.431 21.1807L143.44 21.6232L142.749 20.0769L143.724 19.6416C144.131 19.4471 144.413 19.1467 144.568 18.742C144.722 18.3369 144.712 17.9348 144.535 17.5371C144.357 17.1393 144.063 16.8611 143.649 16.7037C143.236 16.5464 142.825 16.5587 142.416 16.7412L141.641 15.0065L142.593 14.5813C142.948 14.2969 143.184 13.9357 143.304 13.4961C143.42 13.0579 143.386 12.6263 143.196 12.2022C142.974 11.7051 142.604 11.3592 142.081 11.1656C141.562 10.9705 141.052 10.9852 140.55 11.2093L137.872 12.406L137.181 10.8594L139.882 9.65269C140.513 9.38318 141.152 9.28453 141.795 9.35851C142.437 9.4325 143.023 9.65568 143.555 10.0269C144.091 10.3964 144.492 10.889 144.765 11.5012Z" fill="black"/>
<path fill-rule="evenodd" clip-rule="evenodd" d="M169.635 114.362C169.394 123.238 168.233 131.07 161.099 144.384L152.482 127.402L141.646 134.324C136.278 125.918 134.733 126.378 132.737 117.448L123.517 105.784L130.404 100.523L129.769 92.7207H139.185L138.1 82.1631L148.965 90.9914L152.482 84.0316L161.099 94.1764L163.718 90.9914L166.785 101.129L175.304 105.784L169.635 114.362Z" fill="url(#paint17_radial_3976_116077)"/>
<path fill-rule="evenodd" clip-rule="evenodd" d="M142.774 99.5601C144.334 98.8464 145.969 98.2659 144.686 96.729C147.071 98.8767 146.882 99.4438 148.566 98.9416C146.516 99.3518 146.868 101.795 147.115 102.868C146.519 101.537 144.449 99.0847 142.774 99.5601Z" fill="#DE11A5"/>
<path fill-rule="evenodd" clip-rule="evenodd" d="M153.055 98.8147C154.26 98.9466 154.737 98.2894 154.302 96.4038C154.852 98.3355 155.597 99.1549 157.149 99.5646C155.953 99.4429 155.039 101.164 155.037 101.566C154.47 100.522 153.868 98.8564 153.055 98.8147Z" fill="#DE11A5"/>
<path fill-rule="evenodd" clip-rule="evenodd" d="M123.18 127.161C121.96 124.158 124.494 116.837 129.093 111.113L137.284 103.106C141.83 99.5558 149.027 118.127 144.599 119.562L131.951 120.454L123.18 127.161Z" fill="url(#paint18_radial_3976_116077)"/>
<path fill-rule="evenodd" clip-rule="evenodd" d="M168.88 123.264C172.237 108.021 171.072 98.7632 172.237 78.8535L158.184 101.156C156.04 103.664 160.12 122.417 168.88 123.264Z" fill="url(#paint19_radial_3976_116077)"/>
<path fill-rule="evenodd" clip-rule="evenodd" d="M152.391 103.72C154.815 106.611 150.357 106.14 149.833 104.579C149.746 101.054 153.19 99.9838 152.391 103.72Z" fill="#DE11A5"/>
<path d="M176.178 89.5477L172.113 70.623" stroke="#FF6109" stroke-width="0.686738" stroke-miterlimit="1.5" stroke-linecap="round" stroke-linejoin="round"/>
<path fill-rule="evenodd" clip-rule="evenodd" d="M171.546 76.9703C171.697 75.5359 172.511 74.7054 173.86 74.3657C174.297 74.2548 175.559 74.1085 175.687 74.4129C175.814 74.7172 175.687 75.274 174.915 75.7152C173.7 76.4064 175.892 78.4377 174.675 79.4617C174.467 79.6362 173.075 80.5422 172.433 80.6271C170.902 80.83 171.435 78.3835 171.546 76.9703Z" fill="#FD383D"/>
<path fill-rule="evenodd" clip-rule="evenodd" d="M165.611 54.8593L179.651 59.3198L175.19 73.3584L161.151 68.8981L165.611 54.8593Z" fill="#E99D24"/>
<path d="M170.761 65.5382C170.304 65.7609 169.962 66.0868 169.733 66.5158C169.505 66.9449 169.415 67.4023 169.466 67.8869L174.85 65.2618L175.497 66.5894L168.664 69.9212L168.363 69.3037C168.331 69.2374 168.301 69.1697 168.274 69.1007L168.085 68.5604C167.883 67.6839 167.96 66.848 168.319 66.0512C168.677 65.2547 169.271 64.6434 170.1 64.2174L170.097 64.2106C170.676 63.9282 171.071 63.4822 171.282 62.8728C171.49 62.2645 171.453 61.6707 171.17 61.0908C170.89 60.5154 170.445 60.1216 169.837 59.9089C169.225 59.6974 168.63 59.7332 168.051 60.0155C167.649 60.2118 167.342 60.4939 167.137 60.8599C166.929 61.2268 166.812 61.6153 166.786 62.025C166.763 62.4333 166.829 62.8103 166.984 63.1566L165.641 63.7704C165.26 62.8989 165.205 61.9784 165.47 61.0107C165.812 59.924 166.455 59.1506 167.404 58.6879C168.032 58.3816 168.681 58.2566 169.349 58.3146C170.019 58.3711 170.634 58.5834 171.196 58.9499C171.759 59.3165 172.193 59.8141 172.5 60.4424C172.806 61.0711 172.931 61.7195 172.876 62.3873C172.821 63.0548 172.611 63.6666 172.249 64.2212C171.887 64.7758 171.39 65.2125 170.758 65.5317L170.761 65.5382Z" fill="black"/>
<path d="M33.078 45.5238L20.5645 40.374L19.9999 41.7458L32.5135 46.8955L33.078 45.5238Z" fill="#FFBBC2"/>
<path d="M36.9 46.3298L28.9844 43.0723L28.4198 44.444L36.3354 47.7015L36.9 46.3298Z" fill="#FFBBC2"/>
<path fill-rule="evenodd" clip-rule="evenodd" d="M192.304 27.3838L196.978 34.5545L196.05 35.1589L199.259 40.0813L197.73 41.0776L193.056 33.9069L193.984 33.3024L190.775 28.3801L192.304 27.3838Z" fill="url(#paint20_linear_3976_116077)"/>
<path d="M190.774 25.153L189.807 23.6689L188.278 24.6652L189.245 26.1493L190.774 25.153Z" fill="#FFBBC2"/>
<path d="M40.4133 50.443L39.1602 49.6348L38.3561 50.8813L39.6093 51.6896L40.4133 50.443Z" fill="#FFBBC2"/>
<path fill-rule="evenodd" clip-rule="evenodd" d="M206.747 42.8246L206.906 46.8959C206.914 47.1034 206.973 47.3047 207.078 47.4804C207.183 47.6551 207.331 47.7979 207.506 47.8956L210.936 49.7972L207.021 50.0398C206.821 50.0528 206.627 50.1184 206.457 50.2309C206.287 50.3434 206.146 50.4995 206.05 50.6845L204.157 54.2914L203.999 50.2212C203.991 50.0126 203.931 49.8113 203.826 49.6366C203.721 49.4619 203.573 49.3191 203.398 49.2214L199.968 47.3199L203.883 47.0772C204.083 47.0643 204.277 46.9986 204.447 46.8861C204.618 46.7726 204.758 46.6164 204.854 46.4326L206.747 42.8246Z" fill="#FF374C"/>
<path fill-rule="evenodd" clip-rule="evenodd" d="M224.928 25.9814L224.75 29.1409C224.741 29.302 224.772 29.462 224.84 29.6056C224.908 29.7485 225.012 29.8698 225.14 29.9582L227.651 31.6821L224.607 31.5803C224.451 31.5755 224.296 31.6119 224.156 31.6863C224.017 31.7607 223.897 31.871 223.808 32.0068L222.078 34.6557L222.256 31.497C222.266 31.3351 222.235 31.1751 222.166 31.0322C222.098 30.8894 221.994 30.7681 221.866 30.6796L219.355 28.9557L222.399 29.0575C222.555 29.0623 222.71 29.026 222.85 28.9516C222.99 28.8764 223.11 28.766 223.198 28.631L224.928 25.9814Z" fill="#FFBBC2"/>
<defs>
<radialGradient id="paint0_radial_3976_116077" cx="0" cy="0" r="1" gradientUnits="userSpaceOnUse" gradientTransform="translate(95.3081 57.4899) rotate(128.089) scale(33.1953 33.2501)">
<stop offset="0.280024" stop-color="#FFF9FF"/>
<stop offset="0.33625" stop-color="#FFE2FE"/>
<stop offset="0.607135" stop-color="#FF89AC"/>
<stop offset="0.833404" stop-color="#FC2C2C"/>
</radialGradient>
<radialGradient id="paint1_radial_3976_116077" cx="0" cy="0" r="1" gradientUnits="userSpaceOnUse" gradientTransform="translate(121.108 32.2198) rotate(118.432) scale(38.8641 476.785)">
<stop stop-color="#FC2C2C"/>
<stop offset="0.684626" stop-color="#FF89AC"/>
<stop offset="0.824265" stop-color="#FFE2FE" stop-opacity="0.5"/>
<stop offset="1" stop-color="#FFF9FF" stop-opacity="0"/>
</radialGradient>
<radialGradient id="paint2_radial_3976_116077" cx="0" cy="0" r="1" gradientUnits="userSpaceOnUse" gradientTransform="translate(53.6331 42.618) rotate(22.4127) scale(37.1211 496.047)">
<stop stop-color="#FC2C2C"/>
<stop offset="0.666457" stop-color="#FF89AC"/>
<stop offset="0.803672" stop-color="#FFE2FE" stop-opacity="0.5"/>
<stop offset="0.962887" stop-color="#FFF9FF" stop-opacity="0"/>
</radialGradient>
<radialGradient id="paint3_radial_3976_116077" cx="0" cy="0" r="1" gradientUnits="userSpaceOnUse" gradientTransform="translate(231.076 143.438) scale(49.5808 6.56138)">
<stop stop-color="#FFE4E9"/>
<stop offset="0.66" stop-color="#FFE4E9"/>
<stop offset="1" stop-color="#FBFCFE" stop-opacity="0"/>
</radialGradient>
<radialGradient id="paint4_radial_3976_116077" cx="0" cy="0" r="1" gradientUnits="userSpaceOnUse" gradientTransform="translate(150.329 143.438) scale(49.5808 6.56138)">
<stop stop-color="#FFE4E9"/>
<stop offset="0.66" stop-color="#FFE4E9"/>
<stop offset="1" stop-color="#FBFCFE" stop-opacity="0"/>
</radialGradient>
<radialGradient id="paint5_radial_3976_116077" cx="0" cy="0" r="1" gradientUnits="userSpaceOnUse" gradientTransform="translate(84.3513 143.438) scale(49.5808 6.56138)">
<stop stop-color="#FFE4E9"/>
<stop offset="0.66" stop-color="#FFE4E9"/>
<stop offset="1" stop-color="#FBFCFE" stop-opacity="0"/>
</radialGradient>
<radialGradient id="paint6_radial_3976_116077" cx="0" cy="0" r="1" gradientUnits="userSpaceOnUse" gradientTransform="translate(100.193 95.1404) rotate(-33.9509) scale(27.1631 348.382)">
<stop stop-color="#FC2C2C"/>
<stop offset="0.469057" stop-color="#FF89AC"/>
<stop offset="0.714401" stop-color="#FFE2FE" stop-opacity="0.5"/>
<stop offset="0.917489" stop-color="#FFF9FF" stop-opacity="0"/>
</radialGradient>
<radialGradient id="paint7_radial_3976_116077" cx="0" cy="0" r="1" gradientUnits="userSpaceOnUse" gradientTransform="translate(83.3042 87.3099) rotate(171.415) scale(42.6689 40.3294)">
<stop offset="0.29885" stop-color="#FFF9FF"/>
<stop offset="0.352347" stop-color="#FFE2FE"/>
<stop offset="0.607135" stop-color="#FF89AC"/>
<stop offset="0.833404" stop-color="#FC2C2C"/>
</radialGradient>
<radialGradient id="paint8_radial_3976_116077" cx="0" cy="0" r="1" gradientUnits="userSpaceOnUse" gradientTransform="translate(58.9493 104.1) rotate(-33.8064) scale(33.6763 425.366)">
<stop offset="0.0582091" stop-color="#FC2C2C"/>
<stop offset="0.350399" stop-color="#FF89AC"/>
<stop offset="0.475471" stop-color="#FF8FB2" stop-opacity="0.963885"/>
<stop offset="0.611626" stop-color="#FFE2FE" stop-opacity="0.5"/>
<stop offset="0.759661" stop-color="#FFF9FF" stop-opacity="0"/>
</radialGradient>
<radialGradient id="paint9_radial_3976_116077" cx="0" cy="0" r="1" gradientUnits="userSpaceOnUse" gradientTransform="translate(234.246 89.397) rotate(174.772) scale(38.2865 38.0156)">
<stop offset="0.29885" stop-color="#FFF9FF"/>
<stop offset="0.352347" stop-color="#FFE2FE"/>
<stop offset="0.607135" stop-color="#FF89AC"/>
<stop offset="0.833404" stop-color="#FC2C2C"/>
</radialGradient>
<radialGradient id="paint10_radial_3976_116077" cx="0" cy="0" r="1" gradientUnits="userSpaceOnUse" gradientTransform="translate(204.544 91.2431) rotate(-13.447) scale(23.7283 46.2842)">
<stop stop-color="#FC2C2C"/>
<stop offset="0.464827" stop-color="#FF89AC"/>
<stop offset="0.722314" stop-color="#FFE2FE" stop-opacity="0.5"/>
<stop offset="1" stop-color="#FFF9FF" stop-opacity="0"/>
</radialGradient>
<linearGradient id="paint11_linear_3976_116077" x1="235.714" y1="87.9442" x2="222.25" y2="143.722" gradientUnits="userSpaceOnUse">
<stop stop-color="#FFB800"/>
<stop offset="1" stop-color="#FF00B8" stop-opacity="0.11"/>
</linearGradient>
<radialGradient id="paint12_radial_3976_116077" cx="0" cy="0" r="1" gradientUnits="userSpaceOnUse" gradientTransform="translate(242.318 90.0795) rotate(2.3373) scale(21.3538 53.0923)">
<stop stop-color="#FFF9FF" stop-opacity="0"/>
<stop offset="0.277686" stop-color="#FFE2FE" stop-opacity="0.5"/>
<stop offset="0.535173" stop-color="#FF89AC"/>
<stop offset="1" stop-color="#FC2C2C"/>
</radialGradient>
<linearGradient id="paint13_linear_3976_116077" x1="236.715" y1="102.422" x2="241.187" y2="122.488" gradientUnits="userSpaceOnUse">
<stop stop-color="#00FFED"/>
<stop offset="1" stop-color="#00998E"/>
</linearGradient>
<radialGradient id="paint14_radial_3976_116077" cx="0" cy="0" r="1" gradientUnits="userSpaceOnUse" gradientTransform="translate(142.044 63.7193) rotate(160.767) scale(29.8416 31.9985)">
<stop offset="0.187975" stop-color="#FFF9FF"/>
<stop offset="0.355852" stop-color="#FFE2FE"/>
<stop offset="0.607135" stop-color="#FF89AC"/>
<stop offset="0.833404" stop-color="#FC2C2C"/>
</radialGradient>
<linearGradient id="paint15_linear_3976_116077" x1="128.641" y1="86.394" x2="143.49" y2="75.9832" gradientUnits="userSpaceOnUse">
<stop stop-color="#FC2C2C"/>
<stop offset="0.469057" stop-color="#FF89AC"/>
<stop offset="0.714401" stop-color="#FFE2FE" stop-opacity="0.5"/>
<stop offset="0.917489" stop-color="#FFF9FF" stop-opacity="0"/>
</linearGradient>
<radialGradient id="paint16_radial_3976_116077" cx="0" cy="0" r="1" gradientUnits="userSpaceOnUse" gradientTransform="translate(133.662 8.06278) rotate(70.9467) scale(58.1266 592.198)">
<stop offset="0.446346" stop-color="#FC2C2C"/>
<stop offset="0.687978" stop-color="#FF89AC"/>
<stop offset="0.781775" stop-color="#FFE2FE" stop-opacity="0.5"/>
<stop offset="0.91457" stop-color="#FFF9FF" stop-opacity="0"/>
</radialGradient>
<radialGradient id="paint17_radial_3976_116077" cx="0" cy="0" r="1" gradientUnits="userSpaceOnUse" gradientTransform="translate(149.41 107.587) rotate(154.646) scale(37.4686 37.298)">
<stop offset="0.300632" stop-color="#FFF9FF"/>
<stop offset="0.352347" stop-color="#FFE2FE"/>
<stop offset="0.607135" stop-color="#FF89AC"/>
<stop offset="0.8609" stop-color="#FC2C2C"/>
</radialGradient>
<radialGradient id="paint18_radial_3976_116077" cx="0" cy="0" r="1" gradientUnits="userSpaceOnUse" gradientTransform="translate(120.617 129.539) rotate(-39.6991) scale(34.8341 482.018)">
<stop stop-color="#FC2C2C"/>
<stop offset="0.469057" stop-color="#FF89AC"/>
<stop offset="0.714401" stop-color="#FFE2FE" stop-opacity="0.5"/>
<stop offset="0.917489" stop-color="#FFF9FF" stop-opacity="0"/>
</radialGradient>
<radialGradient id="paint19_radial_3976_116077" cx="0" cy="0" r="1" gradientUnits="userSpaceOnUse" gradientTransform="translate(157.54 111.873) rotate(-65.4138) scale(42.6575 44.9206)">
<stop offset="0.0455114" stop-color="#FFF9FF" stop-opacity="0"/>
<stop offset="0.111635" stop-color="#FFE2FE" stop-opacity="0.5"/>
<stop offset="0.321712" stop-color="#FF89AC"/>
<stop offset="0.654308" stop-color="#FE7590"/>
<stop offset="1" stop-color="#FC2C2C"/>
</radialGradient>
<linearGradient id="paint20_linear_3976_116077" x1="191.076" y1="28.1841" x2="215.191" y2="59.6235" gradientUnits="userSpaceOnUse">
<stop stop-color="#FF9BBC"/>
<stop offset="1" stop-color="#FC2C2C"/>
</linearGradient>
</defs>
</svg>
