<svg width="80" height="81" viewBox="0 0 80 81" fill="none" xmlns="http://www.w3.org/2000/svg">
<path d="M27.9773 18.6635L30.4203 3C34.6181 4.62738 37.8525 9.27218 41.0525 14.0526L45.182 4.52405C47.7232 7.92854 49.5857 12.2218 51.7534 16.4598L59.794 12.6948C59.794 16.1885 59.1587 22.2274 58.6694 24.4271H64.8764L62.7984 32.1911L70.5941 34.4836L66.1705 43.4132L72.5 51.5061L63.6042 55.9125C63.8794 57.8022 67.3913 68.5931 67.7319 70.5695C65.921 69.9363 61.4454 68.0582 57.4558 66.5328C56.6175 69.8904 54.7116 75.3376 52.4538 79.3863C50.4186 77.5267 43.9313 70.4156 39.3418 69.2259C37.7136 71.2313 24.4079 79.9885 22.8873 80.5C22.8873 73.6086 22.3112 67.1668 21.7717 64.3348L6.12812 59.2123L14.8334 51.6518L2.5 49.8549L11.511 37.8881L2.61681 25.6319C8.63825 25.0556 9.91576 24.9018 17.8641 24.4271L17.864 10.6521C20.4053 12.0139 24.2171 14.7375 27.9773 18.6635Z" fill="url(#paint0_radial_3976_119110)" stroke="url(#paint1_linear_3976_119110)" stroke-opacity="0.3" stroke-width="0.75421" stroke-miterlimit="10" stroke-linecap="round" stroke-linejoin="round"/>
<path d="M55.5161 30.5367L70.2162 11.4541L72.4902 10.7422L70.805 12.6826L62.0829 41.3332C57.4652 46.5778 55.3644 44.1316 53.5479 41.0378C51.7315 37.9441 53.3355 33.3611 55.5161 30.5367Z" fill="url(#paint2_linear_3976_119110)"/>
<path d="M74.1575 5.14368C73.7851 6.63746 73.0404 8.06899 71.9234 9.18932L71.788 9.09596C72.1265 8.41132 72.3634 7.72667 72.5327 7.04202C72.7019 6.35738 72.8035 5.64161 72.8373 4.95696C72.8499 4.7014 72.8343 4.43718 72.8185 4.17075C72.792 3.72341 72.7651 3.26987 72.8712 2.84078C72.9163 2.61257 72.969 2.39818 73.0216 2.18379C73.1269 1.75503 73.2323 1.32626 73.2774 0.786844L73.4128 0.724609C73.819 0.942451 74.0898 1.31589 74.259 1.72045C74.8006 2.84078 74.496 4.02335 74.1575 5.14368Z" fill="url(#paint3_linear_3976_119110)"/>
<path d="M69.1476 7.54014C69.7231 8.41151 70.4678 9.12727 71.314 9.81192C71.314 9.81192 71.2463 9.9364 71.2463 9.90528C69.9262 9.59408 68.7414 8.87831 67.7597 8.00694C66.8796 7.3223 66.5073 6.23309 66.9812 5.175L67.1504 5.14388C67.7259 5.51732 68.0982 5.89076 68.4367 6.26421C68.6334 6.48119 68.7501 6.74019 68.8665 6.99848C68.9504 7.18474 69.0341 7.37064 69.1476 7.54014Z" fill="url(#paint4_linear_3976_119110)"/>
<path d="M72.2603 9.61579C73.3911 8.92387 74.5443 8.21825 75.3423 7.16678C76.4255 5.33069 76.7978 2.93442 75.5792 1.06721L75.41 1.09833C75.0715 2.00082 74.8345 2.77883 74.6314 3.61907C74.5031 4.04051 74.5038 4.50761 74.5046 4.97091C74.5052 5.36288 74.5059 5.75213 74.4283 6.10869C74.2591 6.8867 73.7175 7.50911 73.142 8.13151C72.8787 8.41388 72.6028 8.69045 72.3252 8.96873C72.0181 9.27659 71.7088 9.58657 71.4123 9.90885C71.3571 9.91823 71.3018 9.92745 71.2464 9.93651V10.061C71.2553 10.0614 71.2642 10.0618 71.2731 10.0621C71.2642 10.0721 71.2553 10.0821 71.2464 10.0921L71.3479 10.1855C71.4066 10.1473 71.4657 10.1093 71.525 10.0716C73.6009 10.1395 75.6972 9.95607 77.5764 9.0029C78.6257 8.50497 79.6751 7.6336 79.9121 6.51327C80.0136 6.10871 80.0136 5.64191 79.9798 5.23735C79.8782 4.52158 79.3704 3.96142 78.8965 3.49461L78.7273 3.52574C78.6797 3.83208 78.6842 4.11107 78.6884 4.37552C78.6932 4.67524 78.6977 4.9563 78.6257 5.23735C78.4226 5.922 78.1518 6.45104 77.7456 7.07345C77.2717 7.78921 76.4593 8.28713 75.6131 8.69169C74.4366 9.21929 73.2115 9.568 71.9378 9.81363C72.0448 9.74762 72.1525 9.68176 72.2603 9.61579Z" fill="url(#paint5_linear_3976_119110)"/>
<path d="M15.7315 39.9324L10.2808 12.8829L7.49995 11.1246L11.2041 11.7493L28.752 42.2204C28.7743 42.279 28.7855 42.3083 28.8078 42.367C29.2181 46.749 16.7455 46.6549 15.7315 39.9324Z" fill="url(#paint6_linear_3976_119110)"/>
<path d="M42.5714 40.0042C42.0505 38.4433 42.2657 36.9981 43.0521 36.7763C43.8384 36.5545 44.8982 37.6401 45.4191 39.201C45.94 40.7619 45.7248 42.2072 44.9384 42.429C44.152 42.6508 43.0923 41.5652 42.5714 40.0042Z" fill="url(#paint7_linear_3976_119110)"/>
<path d="M43.8205 27.0528C43.7059 26.917 43.7327 26.7215 43.8804 26.6161C44.0281 26.5108 44.2408 26.5354 44.3554 26.6712L45.5118 28.0415C45.8851 27.9252 46.2827 27.886 46.605 27.8756C46.6202 27.8752 46.6367 27.8746 46.6543 27.8739C47.0007 27.8615 47.7812 27.8335 47.7812 28.2636C47.7489 28.4719 47.5445 28.5421 47.3444 28.5216C47.2312 28.51 46.9545 28.4872 46.6287 28.4977C46.1786 28.5121 45.6937 28.5881 45.3725 28.7881C45.3448 28.8054 45.2889 28.8595 45.222 28.9885C45.1581 29.1117 45.0984 29.275 45.0447 29.4721C44.9374 29.8657 44.8637 30.3553 44.8139 30.841C44.7644 31.3245 44.7395 31.7939 44.727 32.1432C44.7253 32.1898 44.7275 32.2466 44.7298 32.3086C44.7411 32.607 44.757 33.0276 44.3761 33.0276C44.0859 33.0232 44.0296 32.8986 44.0392 32.5527C44.0408 32.4493 44.044 32.3015 44.0504 32.1228C44.0631 31.7657 44.0886 31.2828 44.1399 30.7826C44.1909 30.2846 44.2685 29.7591 44.388 29.3208C44.4477 29.1019 44.5204 28.895 44.6109 28.7206C44.6826 28.5823 44.7766 28.4424 44.9042 28.3369L43.8205 27.0528Z" fill="url(#paint8_linear_3976_119110)"/>
<path d="M34.6172 27.6067C34.6275 27.4351 34.7871 27.3036 34.9737 27.313C35.1604 27.3224 35.3035 27.4691 35.2932 27.6407L35.1901 29.3708C35.4518 29.5095 35.6941 29.7127 35.9091 29.9289C36.2639 30.2857 36.5975 30.7332 36.8818 31.163C37.1674 31.5947 37.4096 32.0185 37.5801 32.3335C37.6161 32.4001 37.6307 32.4295 37.6468 32.4618C37.6687 32.5061 37.6935 32.5559 37.7798 32.7144C37.9293 32.9887 37.8778 33.1832 37.6794 33.2715C37.3527 33.4169 37.1678 33.0204 37.0415 32.7494C37.017 32.6969 36.9947 32.649 36.974 32.6108C36.8089 32.3058 36.576 31.8985 36.3034 31.4864C36.0296 31.0725 35.7221 30.6633 35.4094 30.3489C35.0851 30.0227 34.7869 29.8818 34.5735 29.8489C34.1184 29.7787 33.7657 30.0163 33.4686 30.4292C33.288 30.6801 33.1439 30.9603 33.0461 31.2479L33.0459 31.2483C32.9927 31.4128 32.8045 31.5067 32.6254 31.4579C32.3817 31.3916 32.3599 31.1643 32.4299 30.9785C32.492 30.8134 32.6433 30.448 32.904 30.0858C33.2142 29.6548 33.7484 29.145 34.5232 29.1838L34.6172 27.6067Z" fill="url(#paint9_linear_3976_119110)"/>
<path fill-rule="evenodd" clip-rule="evenodd" d="M2.89911 7.32076C1.70073 5.96839 1.15924 4.08625 1.74454 2.47811L1.88437 2.45865C2.17497 3.07937 2.46606 3.69247 2.75714 4.30557L2.75735 4.306L2.75736 4.30603C3.04851 4.91927 3.33966 5.5325 3.63032 6.15335C4.55481 8.17424 6.39419 9.85845 8.6581 10.7662C8.307 10.2516 7.92536 9.77878 7.51581 9.30367L7.48892 9.27172C6.15193 7.68327 4.32251 5.50979 5.65978 3.56213L5.80112 3.54267C5.94873 3.82071 6.05473 4.07644 6.15262 4.31257L6.15262 4.31258C6.17973 4.37799 6.20623 4.44189 6.2328 4.50435C6.28686 4.63361 6.34911 4.77537 6.41424 4.92371L6.41425 4.92373C6.60689 5.36248 6.82483 5.85884 6.93121 6.2599C7.11296 7.07598 7.52411 7.84668 7.93588 8.61854C8.33364 9.36413 8.73197 10.1108 8.92467 10.9005L8.78144 10.9507L8.77588 10.9422L8.77409 10.9473C6.40941 10.513 4.31427 9.08889 2.89911 7.32076ZM3.17668 9.04854C4.77902 10.2631 6.90511 10.7374 8.90414 11.0508L8.86466 11.1379C8.00468 11.2184 7.15197 11.1791 6.26704 11.107C4.94145 10.9689 3.59819 10.5583 2.40197 9.97912C1.17353 9.36716 0.461556 8.1348 0.226097 6.94126L0.331813 6.88966C0.727526 7.13267 1.05519 7.37014 1.38101 7.63757C1.65855 7.85594 1.96877 8.09955 2.27899 8.34317C2.58911 8.58671 2.89922 8.83024 3.17668 9.04854ZM11.5251 8.29932C11.0557 9.07897 10.3376 9.78888 9.46809 10.2139L9.38714 10.1578C9.71748 9.81293 9.99039 9.48815 10.1823 9.10725C10.3743 8.72635 10.5662 8.34545 10.7022 7.96001C10.7548 7.81092 10.7867 7.65644 10.8188 7.50113C10.8696 7.25494 10.9209 7.00667 11.0557 6.7745L11.0558 6.77442C11.2757 6.39581 11.4956 6.01721 11.8834 5.65222L11.9938 5.68595C12.189 6.17259 12.2164 6.64562 12.1334 7.08491C12.0893 7.43816 11.8861 7.74677 11.6788 8.06141C11.627 8.14007 11.5749 8.21911 11.5251 8.29932Z" fill="url(#paint10_linear_3976_119110)"/>
<defs>
<radialGradient id="paint0_radial_3976_119110" cx="0" cy="0" r="1" gradientUnits="userSpaceOnUse" gradientTransform="translate(41.14 38.5515) rotate(88.587) scale(50.1115 52.7902)">
<stop offset="0.25" stop-color="#F3F6FF"/>
<stop offset="0.425" stop-color="#D1DEFF"/>
<stop offset="0.53" stop-color="#C3BCFF"/>
<stop offset="0.833404" stop-color="#BA61FF"/>
</radialGradient>
<linearGradient id="paint1_linear_3976_119110" x1="57.3134" y1="4.96302" x2="40.581" y2="76.6765" gradientUnits="userSpaceOnUse">
<stop stop-color="#B2A6FF"/>
<stop offset="1" stop-color="#BB62FF" stop-opacity="0"/>
</linearGradient>
<linearGradient id="paint2_linear_3976_119110" x1="74.0242" y1="18.1893" x2="60.1857" y2="42.1966" gradientUnits="userSpaceOnUse">
<stop stop-color="#BA61FF"/>
<stop offset="0.314673" stop-color="#C3BCFF"/>
<stop offset="0.710927" stop-color="#D1DEFF"/>
<stop offset="1" stop-color="#F3F6FF" stop-opacity="0"/>
</linearGradient>
<linearGradient id="paint3_linear_3976_119110" x1="80" y1="-2.23813" x2="71.2068" y2="13.905" gradientUnits="userSpaceOnUse">
<stop offset="0.17792" stop-color="#A54AEA"/>
<stop offset="0.856452" stop-color="#7365EE"/>
</linearGradient>
<linearGradient id="paint4_linear_3976_119110" x1="80" y1="-2.23813" x2="71.2068" y2="13.905" gradientUnits="userSpaceOnUse">
<stop offset="0.17792" stop-color="#A54AEA"/>
<stop offset="0.856452" stop-color="#7365EE"/>
</linearGradient>
<linearGradient id="paint5_linear_3976_119110" x1="80" y1="-2.23813" x2="71.2068" y2="13.905" gradientUnits="userSpaceOnUse">
<stop offset="0.17792" stop-color="#A54AEA"/>
<stop offset="0.856452" stop-color="#7365EE"/>
</linearGradient>
<linearGradient id="paint6_linear_3976_119110" x1="11.8919" y1="15.1195" x2="35.1737" y2="28.8533" gradientUnits="userSpaceOnUse">
<stop stop-color="#BA61FF"/>
<stop offset="0.469057" stop-color="#C3BCFF"/>
<stop offset="0.714401" stop-color="#D1DEFF"/>
<stop offset="0.917489" stop-color="#F3F6FF" stop-opacity="0"/>
</linearGradient>
<linearGradient id="paint7_linear_3976_119110" x1="40.0236" y1="38.5439" x2="48.9816" y2="45.0601" gradientUnits="userSpaceOnUse">
<stop offset="0.0775548" stop-color="#685BDC"/>
<stop offset="0.547788" stop-color="#598CE9"/>
</linearGradient>
<linearGradient id="paint8_linear_3976_119110" x1="48.2437" y1="28.5029" x2="44.5672" y2="33.1064" gradientUnits="userSpaceOnUse">
<stop offset="0.1" stop-color="#685BDC"/>
<stop offset="1" stop-color="#598CE9"/>
</linearGradient>
<linearGradient id="paint9_linear_3976_119110" x1="30.2562" y1="28.5002" x2="40.2454" y2="34.2287" gradientUnits="userSpaceOnUse">
<stop offset="0.16" stop-color="#685BDC"/>
<stop offset="0.9" stop-color="#598CE9"/>
</linearGradient>
<linearGradient id="paint10_linear_3976_119110" x1="3.35372" y1="1.0364" x2="8.54814" y2="14.3504" gradientUnits="userSpaceOnUse">
<stop offset="0.121505" stop-color="#A54AEA"/>
<stop offset="1" stop-color="#7365EE"/>
</linearGradient>
</defs>
</svg>
