<svg width="180" height="181" viewBox="0 0 180 181" fill="none" xmlns="http://www.w3.org/2000/svg">
<path d="M146.291 155.579L123.504 146.628L103.179 175.755L88.653 152.642C72.1567 168.036 63.833 173.815 60.7298 175.051C61.1655 163.168 59.0995 153.788 56.0389 142.43L34.4482 152.427L40.936 129.009C31.3896 125.966 23.8139 123.985 16.2579 118.838L24.3332 100.794C16.8635 96.0335 10.939 89.3781 6.55151 80.8518L25.9245 68.0772L19.6668 43.2881L42.82 38.8362L50.5535 15.6606L73.1935 22.4029L92.681 4.59455L105.491 22.0193L131.073 15.8221L133.215 37.305L160.495 45.5297L151.674 65.652L174.634 83.6557L158.36 96.6945L165.768 120.554L151.158 126.085" fill="url(#paint0_radial_3976_119415)"/>
<path d="M170.178 111.912C156.67 90.8116 146.952 69.2737 133.847 65.3745C120.742 61.4752 130.012 73.8812 135.335 82.8463C136.602 84.9799 164.757 114.507 167.873 117.257C170.243 119.658 171.909 115.479 170.178 111.912Z" fill="url(#paint1_radial_3976_119415)"/>
<path d="M134.967 107.602L126.951 78.9968L107.07 131.088L150.676 164.991L143.109 133.607L134.967 107.602Z" fill="url(#paint2_linear_3976_119415)"/>
<path d="M126.951 78.9968L134.967 107.602L143.109 133.607L150.675 164.991L168.917 116.579L126.951 78.9968Z" fill="url(#paint3_linear_3976_119415)"/>
<path d="M107.07 131.088L134.973 107.602L168.55 116.246L143.116 133.613L107.077 131.088H107.07Z" fill="url(#paint4_linear_3976_119415)"/>
<path d="M114.538 139.592C83.7918 142.815 83.1883 141.991 61.4403 123.994C55.9298 105.131 55.7952 91.7583 61.4403 90.645C75.425 87.8871 92.6231 124.933 114.538 139.592Z" fill="url(#paint5_radial_3976_119415)"/>
<path fill-rule="evenodd" clip-rule="evenodd" d="M108.071 134.577C108.004 134.674 107.941 134.767 107.88 134.854L107.886 134.86L108.026 134.983C108.145 134.895 108.264 134.805 108.383 134.716C108.926 134.307 109.466 133.901 110.026 133.603C110.343 133.412 110.723 133.314 110.799 133.394C110.903 133.488 111.009 133.588 111.116 133.69C111.594 134.143 112.116 134.638 112.819 134.829C114.319 135.248 115.801 134.454 116.643 133.283L116.567 133.117C115.696 132.996 114.851 133.012 114.019 133.027C113.744 133.032 113.471 133.036 113.199 133.036C112.926 133.049 112.667 133.012 112.369 132.833L111.837 132.488C110.225 131.427 108.906 133.356 108.071 134.577ZM107.981 135.902C110.121 136.45 112.312 136.925 114.503 137.042C115.88 137.001 117.085 136.934 118.342 136.865C119.154 136.821 119.987 136.775 120.904 136.734L120.993 136.894C118.536 139.956 114.11 138.693 110.982 137.522C109.925 137.085 108.893 136.617 107.912 136.074L107.981 135.902ZM115.528 139.549C112.774 139.364 110.052 138.637 107.424 137.756L107.43 137.762L107.348 137.929C108.57 138.637 109.849 139.253 111.172 139.802C115.079 141.342 120.511 142.549 123.671 138.97L123.576 138.81C120.733 139.235 118.346 139.561 115.528 139.549ZM113.692 142.506C111.394 141.656 109.254 140.375 107.291 138.902V138.908L107.158 139.038C107.962 139.999 108.874 140.88 109.843 141.705C112.743 144.04 117.111 146.628 120.758 144.237L120.714 144.059C118.169 143.597 116.111 143.196 113.692 142.506Z" fill="url(#paint6_linear_3976_119415)"/>
<path fill-rule="evenodd" clip-rule="evenodd" d="M164.244 116.664C165.042 114.767 165.282 112.709 165.2 110.688H165.206L165.016 110.664C164.529 112.29 163.965 113.941 163.111 115.389C162.649 115.996 162.243 116.514 161.841 117.026C161.304 117.71 160.775 118.383 160.135 119.246L160.204 119.418C162.034 119.64 163.712 118.309 164.244 116.664ZM166.973 111.31C167.131 113.836 166.872 116.442 165.783 118.801C165.029 120.785 162.971 122.338 160.762 122.214L160.692 122.042C160.855 121.873 161.016 121.706 161.177 121.541L161.177 121.54C163.265 119.386 165.168 117.422 165.979 114.464C166.327 113.441 166.555 112.382 166.783 111.303L166.973 111.316V111.31ZM167.973 111.784C169.486 115.099 171.126 121.673 166.384 123.188L166.257 123.047C166.681 122.018 166.973 121.198 167.194 120.33C167.808 118.598 168.233 116.719 168.081 114.809C168.062 113.824 167.935 112.832 167.783 111.834L167.967 111.778L167.973 111.784Z" fill="url(#paint7_linear_3976_119415)"/>
<path d="M71.4668 76.7549C77.2158 73.6251 80.5146 68.5917 81.7112 61.9255C82.6989 67.1377 84.2438 70.902 87.5869 70.0641C83.7626 71.475 82.1671 73.6868 82.9712 76.7487C80.3753 73.8038 76.3357 74.2905 71.4668 76.7487V76.7549Z" fill="url(#paint8_radial_3976_119415)"/>
<path d="M111.298 70.4277C115.553 68.2898 118.383 64.5132 120.175 59.5352C120.479 65.3449 122.948 66.4539 126.443 65.3449C122.841 66.996 120.53 69.0107 122.201 72.1897C119.903 70.5694 116.433 69.8609 111.292 70.4338L111.298 70.4277Z" fill="url(#paint9_radial_3976_119415)"/>
<path d="M111.298 80.9507C108.43 83.0084 105.239 85.5775 101.535 85.8055C97.9703 86.0211 93.7979 83.3534 90.9613 86.6618C88.3274 89.73 91.5122 93.7777 94.4627 95.244C99.2177 97.6098 105.587 96.6672 110.07 94.1658C113.172 92.4346 115.376 89.6745 115.414 86.0889C115.433 83.8956 113.394 79.4474 111.298 80.9568V80.9507Z" fill="url(#paint10_radial_3976_119415)"/>
<defs>
<radialGradient id="paint0_radial_3976_119415" cx="0" cy="0" r="1" gradientUnits="userSpaceOnUse" gradientTransform="translate(94.4622 82.2635) rotate(-141.951) scale(123.949 125.357)">
<stop offset="0.32941" stop-color="#F3F6FF"/>
<stop offset="0.425" stop-color="#D1DEFF"/>
<stop offset="0.54" stop-color="#C3BCFF"/>
<stop offset="0.809272" stop-color="#BA61FF"/>
</radialGradient>
<radialGradient id="paint1_radial_3976_119415" cx="0" cy="0" r="1" gradientUnits="userSpaceOnUse" gradientTransform="translate(120.226 56.0798) rotate(49.8248) scale(76.7149 74.3699)">
<stop offset="0.300408" stop-color="#F3F7FF" stop-opacity="0.19"/>
<stop offset="0.487657" stop-color="#D1DEFF" stop-opacity="0.5"/>
<stop offset="0.680078" stop-color="#C3BCFF"/>
<stop offset="0.905129" stop-color="#BA61FF"/>
</radialGradient>
<linearGradient id="paint2_linear_3976_119415" x1="121.133" y1="109.395" x2="153.473" y2="145.497" gradientUnits="userSpaceOnUse">
<stop stop-color="#BDF7F3"/>
<stop offset="1" stop-color="#69BAE8"/>
</linearGradient>
<linearGradient id="paint3_linear_3976_119415" x1="107.07" y1="121.994" x2="168.917" y2="121.994" gradientUnits="userSpaceOnUse">
<stop stop-color="#EF5DA2"/>
<stop offset="1" stop-color="#69BAE8"/>
</linearGradient>
<linearGradient id="paint4_linear_3976_119415" x1="118.689" y1="97.5351" x2="144.784" y2="135.205" gradientUnits="userSpaceOnUse">
<stop offset="0.38" stop-color="#3786AA"/>
<stop offset="0.841079" stop-color="#84CED5"/>
<stop offset="1" stop-color="#A0D4A9"/>
</linearGradient>
<radialGradient id="paint5_radial_3976_119415" cx="0" cy="0" r="1" gradientUnits="userSpaceOnUse" gradientTransform="translate(54.8202 102.968) rotate(45.4109) scale(71.3711 93.2495)">
<stop offset="0.0811422" stop-color="#F3F7FF" stop-opacity="0"/>
<stop offset="0.313201" stop-color="#D1DEFF" stop-opacity="0.38"/>
<stop offset="0.618936" stop-color="#C3BCFF"/>
<stop offset="0.808975" stop-color="#BA61FF"/>
</radialGradient>
<linearGradient id="paint6_linear_3976_119415" x1="107.158" y1="136.535" x2="121.475" y2="145.547" gradientUnits="userSpaceOnUse">
<stop stop-color="#A54AEA"/>
<stop offset="1" stop-color="#7365EE"/>
</linearGradient>
<linearGradient id="paint7_linear_3976_119415" x1="166.989" y1="110.664" x2="162.337" y2="124.618" gradientUnits="userSpaceOnUse">
<stop stop-color="#7365EE"/>
<stop offset="0.878495" stop-color="#A54AEA"/>
</linearGradient>
<radialGradient id="paint8_radial_3976_119415" cx="0" cy="0" r="1" gradientUnits="userSpaceOnUse" gradientTransform="translate(86.2505 76.7549) rotate(-131.22) scale(22.4351 17.7697)">
<stop offset="0.303759" stop-color="#5991E9"/>
<stop offset="0.814207" stop-color="#685BDC"/>
</radialGradient>
<radialGradient id="paint9_radial_3976_119415" cx="0" cy="0" r="1" gradientUnits="userSpaceOnUse" gradientTransform="translate(115.489 72.1897) rotate(-39.2727) scale(14.1499 10.0814)">
<stop offset="0.16" stop-color="#598CE9"/>
<stop offset="0.822377" stop-color="#685BDC"/>
</radialGradient>
<radialGradient id="paint10_radial_3976_119415" cx="0" cy="0" r="1" gradientUnits="userSpaceOnUse" gradientTransform="translate(97.1871 85.7549) rotate(-159.523) scale(30.5944 15.5897)">
<stop offset="0.06" stop-color="#5991E9"/>
<stop offset="0.72" stop-color="#685BDC"/>
</radialGradient>
</defs>
</svg>
